<svg xmlns="http://www.w3.org/2000/svg" width="1440" height="240" fill="none" viewBox="0 0 1440 240"><g clip-path="url(#clip0_3414_4795)"><path fill="#fff" d="M0 0h1440v240H0z"/><g clip-path="url(#clip1_3414_4795)"><path fill="#fff" d="M0 0h1450.55v241H0z"/><rect width="1440" height="240" fill="url(#paint0_linear_3414_4795)" rx="27.283"/><path fill="#FF7A4A" fill-opacity=".7" d="M1091.5 71.625c8.13-1.32 13.65-8.981 12.33-17.113-1.32-8.132-8.98-13.654-17.11-12.334-8.13 1.32-13.65 8.982-12.33 17.114 1.32 8.131 8.98 13.653 17.11 12.333Z"/><path fill="#FF855A" fill-opacity=".8" d="M936.03 170.361c.395-1.271 2.166-1.316 2.626-.068l2.061 5.6a16.438 16.438 0 0 0 9.687 9.74l5.869 2.184c1.208.449 1.208 2.167 0 2.617l-5.869 2.183a16.443 16.443 0 0 0-9.687 9.741l-2.172 5.901c-.447 1.214-2.155 1.214-2.602 0l-2.172-5.901a16.444 16.444 0 0 0-9.688-9.741l-5.785-2.152c-1.218-.453-1.205-2.19.019-2.624l6.059-2.15a16.448 16.448 0 0 0 10.193-10.629l1.461-4.701Z"/><path fill="#FF8A62" fill-opacity=".8" d="M1359.95 23.352c.25-.799 1.36-.828 1.65-.043l1.3 3.52a10.329 10.329 0 0 0 6.09 6.123l3.69 1.372c.76.283.76 1.362 0 1.645l-3.69 1.372a10.329 10.329 0 0 0-6.09 6.123l-1.37 3.71c-.28.763-1.35.763-1.63 0l-1.37-3.71a10.329 10.329 0 0 0-6.09-6.123l-3.63-1.353c-.77-.284-.76-1.376.01-1.649l3.81-1.351a10.338 10.338 0 0 0 6.4-6.681l.92-2.955Z"/><path fill="#FF713E" d="M871.921 146.651v.136a6.72 6.72 0 0 0 6.72 6.721h.72v100.624c0 8.405 6.813 15.22 15.22 15.22h.307c8.406 0 15.22-6.814 15.22-15.22V153.508h.72a6.72 6.72 0 0 0 6.72-6.721v-.136a6.72 6.72 0 0 0-6.72-6.72h-32.187a6.72 6.72 0 0 0-6.72 6.72Z"/><path fill="#FFC3AE" d="M903.877 133.27a2.255 2.255 0 1 0-.723-4.45 2.255 2.255 0 0 0 .723 4.45Z"/><path fill="#FFEDE6" d="M904.368 174.703a3.44 3.44 0 1 0 0-6.879 3.44 3.44 0 0 0 0 6.879Z"/><path fill="#FFF6F2" d="M901.821 202.224h-14.95v52.326a7.475 7.475 0 0 0 14.95 0v-52.326Z"/><path fill="#FF6E3B" stroke="#FF6E3B" stroke-width=".107" d="M887.576 107.635a8.446 8.446 0 1 0 16.629-2.967 8.446 8.446 0 0 0-16.629 2.967Z"/><path fill="#FF6E3B" stroke="#FF6E3B" stroke-width=".201" d="M856.756 78.679c1.542 8.641 9.798 14.397 18.439 12.855 8.642-1.542 14.398-9.797 12.856-18.439-1.542-8.642-9.798-14.397-18.439-12.855-8.642 1.542-14.397 9.797-12.856 18.439Z"/><path stroke="#FF6E3B" stroke-linecap="round" stroke-width="4.236" d="m869.871 71.356 24.007 32.515"/><path fill="#E85A27" d="M836.679 164.266c0-19.149-15.523-34.672-34.672-34.672-19.149 0-34.672 15.523-34.672 34.672v34.672h34.672c19.149 0 34.672-15.523 34.672-34.672Z"/><path fill="#FFB69C" d="M796.597 173.801v-.595c.012-2.04.192-3.666.542-4.879.362-1.212.886-2.192 1.574-2.938.688-.746 1.516-1.422 2.483-2.028.723-.467 1.37-.951 1.941-1.452a6.265 6.265 0 0 0 1.364-1.661 4.22 4.22 0 0 0 .508-2.064c0-.804-.193-1.51-.578-2.116a3.84 3.84 0 0 0-1.556-1.399 4.637 4.637 0 0 0-2.133-.489c-.758 0-1.475.169-2.151.507a4.103 4.103 0 0 0-1.662 1.469c-.431.641-.664 1.439-.699 2.395h-7.135c.058-2.331.618-4.255 1.679-5.77 1.061-1.528 2.465-2.664 4.214-3.411 1.749-.757 3.678-1.136 5.789-1.136 2.32 0 4.371.384 6.155 1.154 1.784.758 3.183 1.859 4.197 3.305 1.015 1.446 1.522 3.189 1.522 5.229 0 1.364-.228 2.576-.682 3.637a8.846 8.846 0 0 1-1.872 2.798c-.804.805-1.754 1.533-2.85 2.186-.921.548-1.679 1.12-2.273 1.714a5.824 5.824 0 0 0-1.312 2.064c-.28.781-.426 1.743-.437 2.885v.595h-6.628Zm3.463 11.192c-1.166 0-2.163-.408-2.991-1.224-.816-.828-1.218-1.819-1.206-2.973-.012-1.143.39-2.122 1.206-2.938.828-.816 1.825-1.224 2.991-1.224 1.107 0 2.081.408 2.92 1.224.839.816 1.265 1.795 1.277 2.938a4.075 4.075 0 0 1-.612 2.116 4.528 4.528 0 0 1-1.522 1.521 3.973 3.973 0 0 1-2.063.56Z"/><g opacity=".8"><path fill="#FFBEA7" d="M1081.19 186.701a2.837 2.837 0 0 0-2.84-2.837h-28.99a2.838 2.838 0 1 0 0 5.674h28.99c1.57 0 2.84-1.27 2.84-2.837ZM1032.1 229.659a2.837 2.837 0 0 0 2.84 2.837h29a2.837 2.837 0 1 0 0-5.674h-29a2.838 2.838 0 0 0-2.84 2.837Z"/><path fill="#FF855A" d="M1054.52 202.487c-.32.116-8.21 3.074-16.08 9.655-10.77 9.016-16.46 20.54-16.46 33.324l12.18.001c0-9.096 3.98-17.097 11.84-23.781 6.26-5.324 12.71-7.784 12.78-7.808.32-.117 8.21-3.074 16.07-9.656 10.78-9.017 16.47-20.54 16.47-33.325 0-12.785-5.69-24.308-16.47-33.325-7.86-6.581-15.75-9.539-16.09-9.661v-.002c-.17-.064-6.56-2.528-12.76-7.8-7.86-6.685-11.84-14.686-11.84-23.782 0-3.358-2.73-6.08-6.09-6.08a6.08 6.08 0 0 0-6.09 6.08c0 12.784 5.69 24.308 16.47 33.325 7.86 6.581 15.75 9.539 16.09 9.661v.002c.17.064 6.55 2.527 12.75 7.8 7.86 6.685 11.85 14.686 11.85 23.782 0 9.097-3.99 17.098-11.85 23.782-6.26 5.324-12.71 7.784-12.77 7.808Z"/><path fill="#FFBEA7" d="M1032.1 155.088a2.837 2.837 0 0 0 2.84 2.837h29a2.838 2.838 0 1 0 0-5.674h-29c-1.57 0-2.84 1.27-2.84 2.837ZM1073.99 170.894a2.845 2.845 0 0 0-2.85-2.836h-28.99a2.837 2.837 0 1 0 0 5.673h28.99c1.57 0 2.85-1.27 2.85-2.837Z"/><path fill="#FF855A" d="M1067.29 221.683c7.86 6.684 11.85 14.685 11.85 23.781h12.18c0-12.785-5.69-24.308-16.47-33.325-7.86-6.581-15.76-9.539-16.09-9.661-.05-.018-6.5-2.478-12.76-7.802-7.86-6.684-11.84-14.685-11.84-23.782s3.98-17.098 11.84-23.782c6.26-5.324 12.71-7.784 12.78-7.808.32-.116 8.21-3.074 16.07-9.655 10.78-9.017 16.47-20.541 16.47-33.325 0-3.358-2.73-6.08-6.09-6.08s-6.09 2.723-6.09 6.08c0 9.097-3.99 17.098-11.85 23.782-6.26 5.324-12.71 7.784-12.77 7.808-.32.116-8.21 3.074-16.08 9.656-10.77 9.016-16.46 20.54-16.46 33.324 0 12.785 5.69 24.308 16.46 33.325 7.87 6.582 15.76 9.539 16.09 9.662.05.018 6.5 2.478 12.76 7.802Z"/><path fill="#FFBEA7" d="M1081.19 111.725a2.837 2.837 0 0 0-2.84-2.837h-28.99a2.837 2.837 0 1 0 0 5.673h28.99c1.57 0 2.84-1.27 2.84-2.836Z"/></g><path fill="#F6F6F6" d="M1151.55 134.315c8.72-7.131 23.93-11.958 30.45-13.48l41.34-1.957 20.55 12.941 27.43 9.542a20.872 20.872 0 0 1 13.73 16.236l23.48 138.569h-217.34l18.54-132.158c1.37-9.739 8.01-17.661 17.53-20.151 9.11-2.386 19.02-5.222 24.29-9.542Z"/><path fill="#F15A24" d="M1198.01 156.606c0 .035 1.7-.084 1.83.035l25.56 77.629c.25.763.31 1.575.19 2.367l-5.44 33.893a5.038 5.038 0 0 1-4.97 4.227h-39.52l-3.91-36.104a4.942 4.942 0 0 1 .14-1.836l21.39-80.211h4.73Z"/><path fill="#D1451C" d="M1195.79 164.932c-5.08-.221-9.67-11.379-11.02-16.123-.24-.837.16-1.705.97-2.026 6.14-2.438 17.03-.997 21.52.098.9.218 1.4 1.055 1.14 1.937-1.34 4.554-6.44 16.382-12.61 16.114Z"/><path fill="#C4DDE5" d="M1174.57 163.073c-10.08-26.514-9.59-39.826.09-43.478l28.63-10.127a10.588 10.588 0 0 1 11.56 3.082l7.95 9.244c7.53 10.856 1.21 30.531-8.18 42.316-.76.954-2.19.952-3 .041l-15.48-17.388-18.3 17.061a2.022 2.022 0 0 1-3.27-.751Z"/><path fill="#2F2D27" d="M1234.72 137.908c-1.01-6.069-12.71-20.33-16.35-23.974 20.7 5.891 70.14 26.639 78.08 38.517 15.17 18.63 36.91 100.241 46.25 143.209h-103.93c-.92-13.908-3.03-151.683-4.05-157.752ZM1164.5 136.572c1.05-10.137 11.13-17.545 14.89-21.181-21.34 5.878-70.58 24.676-78.76 36.527-16.25 23.514-42.06 103.594-46.82 155.999l107.04-11.677c.95-13.878 3.02-153.558 3.65-159.668Z"/><path fill="#2F2D27" d="M1251.03 146.66c-7.89-25.066-24.48-30.974-29.6-33.21l-5 3.381c5.35 4.624 14.48 10.516 12.44 26.885l-21.69 151.356a2.736 2.736 0 0 0 2.71 3.129h8.02c1.08 0 2.06-.634 2.5-1.62l45.03-100.551a2.058 2.058 0 0 0-1.52-2.869l-24.26-4.311 18.92-8.27c1.85-.809 2.69-2.967 1.93-4.841-4-9.897-6.58-19.847-9.48-29.079ZM1142.76 146.659c7.89-25.066 28.12-31.009 33.24-33.244l4.84 4.041c-5.35 4.625-17.96 9.89-15.92 26.259l21.69 151.356a2.736 2.736 0 0 1-2.71 3.129h-9.55c-1.08 0-2.06-.634-2.51-1.62l-45.01-100.527a2.06 2.06 0 0 1 1.53-2.873l25.77-4.331-18.92-8.27c-1.85-.809-2.69-2.967-1.93-4.841 4-9.897 6.58-19.847 9.48-29.079Z"/><path stroke="url(#paint1_linear_3414_4795)" stroke-linecap="round" stroke-width="2.938" d="M1157.04 126.569c-8.74 10.866-19.41 29.509-25.58 46.782l16.71 9.685c.4.231.51.753.24 1.123-4.45 5.996-11.36 11.4-13.72 15.563l37.49 58.973"/><path stroke="url(#paint2_linear_3414_4795)" stroke-linecap="round" stroke-width="2.938" d="M1235.27 122.504c8.75 10.866 23.37 33.528 29.54 50.8l-22.98 2.449c4.42 6.273 15.38 17.612 17.83 21.935l-35.56 60.961"/><path stroke="#FFFAF3" stroke-width="2.667" d="M1179.24 117.609c-17.46 7.787-25.46 31.043-22.75 81.025"/><ellipse cx="12.842" cy="11.987" fill="#615E57" rx="12.842" ry="11.987" transform="matrix(.97928 .20251 -.23411 .9722 1146.11 178.093)"/><ellipse cx="5.269" cy="4.918" fill="#222" rx="5.269" ry="4.918" transform="matrix(.97928 .20251 -.23411 .9722 1152.26 186.742)"/><path stroke="#FFFAF3" stroke-width="2.605" d="m1208.13 236.434 9.07-.827c7.9-.72 14.72-5.785 17.35-12.877l9.88-26.68c2.96-8.003-.23-16.711-7.72-21.074-7.92-4.612-18.4-3.078-24.79 3.629l-19.6 20.55c-4.97 5.218-6.55 12.513-4.09 18.948l3.32 8.676"/><path fill="#121414" d="m1194.39 225.925-.92-1.164c-.73-.928-1.99-1.285-3.15-.893-1.41.478-2.26 1.916-1.96 3.323l.32 1.451c.41 1.939 2.56 2.951 4.43 2.089 1.89-.876 2.52-3.226 1.28-4.806ZM1206.78 233.86l1.64.317c1.29.25 2.25 1.268 2.35 2.487.1 1.32-.83 2.505-2.22 2.801l-1.62.348c-2.12.454-4.14-1.107-4.06-3.129.08-1.866 1.93-3.206 3.91-2.824Z"/><path fill="#1B1B18" stroke="#4B4A48" stroke-linecap="round" stroke-linejoin="round" stroke-width=".091" d="m1115.62 223.538-4.07-20.841-11.71 92.962h15.78v-72.121Z"/><path fill="#171612" stroke="#4B4A48" stroke-linecap="round" stroke-linejoin="round" stroke-width=".091" d="m1275.95 222.126 4.07-20.954 11.71 93.47h-15.78v-72.516Z"/><path fill="#EF8A3F" d="M1171.82 124.892c2.18-12.418 2.79-17.894 2.08-21.897l45.12 2.084 2.7 20.336c.22 1.661-.22 3.365-1.29 4.654-19.2 23.083-39.42 10.791-47.38.537-1.25-1.611-1.58-3.707-1.23-5.714Z"/><path fill="#989898" d="M1233.43 147.62c-1.12-23.34-8.6-26.267-12.16-29.961 1.53-1.016.08-2.919 1.1-3.681 2.98 2.357 13.76 9.95 14.93 30.877 1.25 8.487-.11 17.629-1.11 28.474h-4.76c-.58-5.737 2.94-10.588 2-25.709Z"/><path stroke="#B3ADA2" stroke-linecap="round" stroke-width="7.307" d="m1209.72 179.246 3.21-2.673c6.78-5.648 16.64-6.422 24.09-1.892v0c7.74 4.71 10.86 13.911 7.51 22.154l-1.61 3.945"/><path fill="#171612" d="M1277.4 197.016c0-21.534 10.17-41.406 14.38-47.197 4.67 2.329 9.08 11.663 9.34 12.809-9.34 8.552-22.51 24.906-23.72 34.388Z"/><path fill="url(#paint3_linear_3414_4795)" d="m1233.84 28.15.95 36.625s4.5 23.97-7.21 47.011c0 0-1.53 3.38-12.53 9.83 0 0-6.01 7.229-18.85 7.184-12.96.664-18.85-7.184-18.85-7.184-11-6.45-12.54-9.83-12.54-9.83-4.8-9.44-6.87-19.038-7.65-27.077-3.65-10.03-2.2-15.053-2.2-15.053l3.59-41.507h75.31-.02Z"/><path fill="url(#paint4_linear_3414_4795)" d="M1209.26 117.036c.18-6.101-5.55-11.219-12.8-11.442-7.24-.222-13.27 4.554-13.45 10.65-.19 6.1 5.54 11.223 12.79 11.441 7.25.218 13.27-4.554 13.45-10.649h.01Z"/><path fill="#B55B22" d="M1204.51 84.706c-.28.01-.5.241-.49.523.03.769-.19 1.37-.63 1.715-.35.273-.79.355-1.23.228l-.08-.014c-.78-.145-2.89-.532-4.27.878-.42.432-1.36.696-2.5.7-1.21.023-2.23-.245-2.67-.7-1.37-1.415-3.48-1.023-4.28-.878l-.07.014c-.45.127-.9.045-1.24-.228-.43-.341-.65-.946-.63-1.715a.5.5 0 0 0-.48-.523c-.26-.023-.51.205-.52.482-.04 1.092.32 1.993 1.02 2.539.59.468 1.36.614 2.11.405.71-.132 2.37-.433 3.38.596.81.832 2.26.987 3.12.996h.37c.86-.014 2.31-.178 3.11-.996 1.01-1.029 2.67-.728 3.36-.596.76.213 1.53.063 2.13-.405.69-.542 1.05-1.442 1.02-2.539-.01-.273-.24-.514-.53-.482h.01-.01Z"/><path fill="#EB762E" fill-opacity=".6" d="M1210.46 99.036h-28.62c-.31 0 3.21 5.578 8.03 5.973 2.06.173 6.28-.127 6.28-.127s4.2.296 6.27.127c4.83-.386 8.35-5.973 8.04-5.973Z"/><path fill="#121414" d="M1216.56 66.421c.15-1.728-1.67-3.284-4.05-3.48-2.39-.19-4.43 1.051-4.57 2.78-.14 1.729 1.67 3.284 4.05 3.48 2.39.196 4.43-1.05 4.57-2.78Z"/><path fill="#E7E7E5" d="M1214.54 64.916c.01-.541-.5-.991-1.15-.996-.64 0-1.16.428-1.16.974 0 .54.51.987 1.15.996.63 0 1.16-.428 1.16-.974Z"/><path fill="#42403A" d="M1170.53 57.568c-1.13.023-3.79 1.123-5.77 1.77-1.37.44-1.4-.187-.25-1.042 2.12-1.556 4.64-3.904 6.48-4.986.66-.396 1.45-.428 2.21-.291 3.21.568 8.96 1.464 12.24 2.306 1.35.35 1.78 1.742.97 2.889-.04.064-.08.118-.12.182-.87 1.215-2.3 1.487-3.75 1.146-5.24-1.233-9.96-2.02-12.02-1.974h.01ZM1220.83 57.568c-2.06-.041-6.77.741-12.02 1.974-1.45.341-2.87.069-3.74-1.146-.04-.064-.09-.118-.13-.182-.8-1.147-.37-2.539.97-2.889 3.28-.842 9.02-1.738 12.25-2.306.76-.137 1.54-.105 2.2.29 1.84 1.083 4.36 3.43 6.48 4.987 1.16.855 1.12 1.483-.25 1.041-1.97-.65-4.63-1.747-5.77-1.77h.01Z"/><path fill="#121414" d="M1180.22 69.261c2.37-.264 4.15-1.879 3.95-3.598-.2-1.72-2.27-2.903-4.65-2.639-2.38.264-4.15 1.879-3.95 3.599.19 1.72 2.27 2.902 4.65 2.634v.004Z"/><path fill="#E7E7E5" d="M1182.37 64.456c.01-.541-.51-.992-1.14-1-.64 0-1.17.427-1.17.973-.01.541.51.991 1.14.996.64 0 1.17-.428 1.17-.974v.005Z"/><path fill="#42403A" d="m1201.27 92.885 11.55 2.548c.63.137.58 1.046-.06 1.151-4.75 1.16-14.25.728-14.25.728-1.83-.09-1.81-1.874-1.81-1.874-.18-3.098 3.37-2.825 4.57-2.557v.004ZM1195.71 95.45s.01 1.783-1.81 1.874c0 0-9.5.428-14.25-.728-.64-.109-.68-1.014-.06-1.15l11.55-2.548c1.2-.264 4.75-.537 4.57 2.556v-.004Z"/><path fill="#B55B22" d="M1198.42 109.418h-4.54c-.28 0-.5-.223-.5-.501 0-.277.22-.5.5-.5h4.54c.28 0 .5.223.5.5 0 .278-.22.501-.5.501Z"/><path fill="#F19E5A" d="M1157.43 81.342a4.516 4.516 0 0 1-.47-6.105l.18-.241c-2.3-12.383-6.51-10.727-6.51-10.727-2.77.9-4.38 3.466-3.51 9.462 1.27 8.207 5.57 18.101 9.08 16.177.78-.427 1.22-1.301 1.22-2.193v-6.377l.01.004Z"/><path fill="#B55B22" d="M1154.11 76.371h.02c.28-.014.49-.25.48-.528-.3-5.332-2.15-8.12-3.82-8.12h-.01c-.75 0-1.58.596-1.65 2.238-.01.277.2.514.48.519.27.009.51-.2.52-.478.04-.773.29-1.283.65-1.283.84 0 2.55 2.097 2.83 7.179.02.273.24.473.5.473Z"/><path fill="#F19E5A" d="M1233.97 87.71c0 .893.44 1.766 1.23 2.194 3.51 1.92 7.82-7.97 9.09-16.173.87-5.991-.73-8.557-3.51-9.462 0 0-4.21-1.656-6.52 10.727l.19.241a4.507 4.507 0 0 1-.48 6.105v6.378-.01Z"/><path fill="#B55B22" d="M1237.3 76.354h-.03a.506.506 0 0 1-.48-.527c.3-5.332 2.15-8.12 3.82-8.12h.01c.75 0 1.58.595 1.65 2.237.01.278-.2.514-.47.519a.49.49 0 0 1-.52-.478c-.04-.773-.3-1.283-.66-1.283-.84 0-2.54 2.098-2.82 7.18a.503.503 0 0 1-.5.472Z"/><path fill="#262626" d="m1236.09 69.232 5.76-19.916c.99-3.653 2.1-8.539 1.47-12.274-1.33-7.965-5.4-10.527-5.51-10.527-.86-4.499-3.42-7.588-6.95-10.385-.01-.01-2.12-1.71-2.13-1.72-7.79-6.178-20.31-8.793-32.94-8.725-19.62.8-35.05 8.116-37.56 20.107 0 0-14.29 5.19-3.98 39.291 1.91 5.769 1.91 5.555 2.15 6.078.43.582 1.09.823 1.73.523.3-.168.6-.46.73-.85l.83-5.746c.3-.933.36-1.92.2-2.889-.45-2.652-.86-8.152.12-14.002.69-4.08 2.45-7.93 5.24-10.986 3.78-4.15 7.98-5.496 11.66-6.224 4.92-.787 6.51.141 10.15 1.456 1.79.646 5 1.551 8.73 1.474 3.72.077 6.94-.828 8.73-1.474 3.64-1.31 5.24-2.243 10.14-1.456 8.85 1.42 15.43 8.47 16.9 17.205.99 5.85.57 11.35.12 14.002-.16.97-.09 1.957.21 2.89 0 0 .74 4.871.75 4.871l.13.897c.13.39.38.668.67.837.73.418 1.67.036 1.99-.746.23-.564.56-1.402.65-1.72"/><g opacity=".7"><path fill="url(#paint5_linear_3414_4795)" d="M1243.04 35.561c-1.12-5.145-3.55-8.257-5.23-9.048-1.55 8.234-3.83 13.192-8.02 15.899 1 2.657 1.25 3.007 1.79 5.727.98 5.85.56 11.35.11 14.007-.15.97-.09 1.956.21 2.889 0 0 .73 4.877.74 4.877l.14.941c.13.392.37.67.67.837.73.419 1.69.041 2-.787.23-.564.55-1.405.64-1.724 4.28-14.716 7.44-23.655 7.43-28.841l-.08-2.239-.4-2.538Z"/></g><g opacity=".7"><path fill="url(#paint6_linear_3414_4795)" d="M1167.46 35.164c-3.26-.7-9.36-1.815-9.23-9.371-4.17 2.356-13.79 10.363-2.61 43.372.09.318.42 1.155.65 1.72.32.782 1.19 1.173 1.93.759.29-.168.54-.446.66-.837l.14-.896.75-4.877c.31-.933.37-1.92.21-2.889-.45-2.652-.87-8.152.11-14.007.52-4.198 3.78-10.636 7.39-12.974Z"/></g><path fill="url(#paint7_linear_3414_4795)" fill-opacity=".4" d="M1182.94 30.974c-6.59-3.053-6.15-8.398-5.03-10.74 9.56-15.354 35.51-12.206 47.19-8.29 0-.013-.62-.313-.62-.327-2.7-1.465-5.1-2.356-8.17-3.339-9.05-2.798-21.76-3.644-33.05-1.083-10.84 2.32-20.75 7.197-24.33 16.173-1.17 2.697-.83 5.19.56 7.438 2.06 3.334 6.1 4.226 7.86 4.348 2.53-2.151 9.13-5.536 15.58-4.194h.01v.014Z"/><path fill="url(#paint8_linear_3414_4795)" d="M1170.2 33.353c-14.43 7.811-10.26 28.883-10.26 28.883L1172 51.964c.24-.205.36-.51.33-.819-.23-2.374-1.29-12.696-2.13-17.792Z" opacity=".85"/><path fill="#B55B22" d="M1188.82 100.088c-2.37 0-5.12-.323-7.71-1.1a.469.469 0 0 1-.31-.592.468.468 0 0 1 .59-.319c4.28 1.283 9.16 1.274 11.58.615.5-.137 1.08-.096 1.7.118.88.31 2.46.368 3.97-.187.38-.136.76-.168 1.13-.086 2.67.582 5.36.95 11.33-.5.25-.064.51.095.58.35.06.255-.1.514-.35.578-6.17 1.501-8.98 1.114-11.76.504a1.06 1.06 0 0 0-.59.05c-1.52.56-3.34.637-4.62.196-.3-.104-.74-.205-1.14-.095-1.11.304-2.64.477-4.39.477l-.01-.009Z"/><path fill="url(#paint9_linear_3414_4795)" d="M1221.35 33.353c14.58 7.48 10.26 28.883 10.26 28.883l-12.05-10.272a.96.96 0 0 1-.34-.819c.24-2.374 1.3-12.696 2.13-17.792Z" opacity=".85"/><g opacity=".4"><path fill="#D9D9D9" d="m1161.48 75.953-1.02-10.695a2.795 2.795 0 0 1 2.78-3.057h20.93c1.19 0 2.37.25 3.45.737l1.76.787a5.744 5.744 0 0 1 3.23 6.61l-1.36 5.536a8.482 8.482 0 0 1-2.73 4.436l-.28.236a8.472 8.472 0 0 1-5.5 2.03h-13.71c-1.18 0-2.34-.355-3.32-1.015l-.21-.146a12.932 12.932 0 0 1-2.93-2.716c-.61-.791-1-1.746-1.09-2.747v.004Z"/></g><g opacity=".4"><path fill="#D9D9D9" d="m1230.17 75.921.69-10.886a2.66 2.66 0 0 0-2.65-2.825h-20.68c-1.19 0-2.36.25-3.45.737l-1.76.787a5.744 5.744 0 0 0-3.23 6.61l1.36 5.536a8.562 8.562 0 0 0 2.74 4.436l.27.236a8.472 8.472 0 0 0 5.5 2.03h13.71c1.18 0 2.34-.356 3.32-1.015l.26-.178c1.08-.728 2.04-1.62 2.84-2.643a5.123 5.123 0 0 0 1.08-2.825Z"/></g><path fill="#000" d="M1230.64 62.571a3.29 3.29 0 0 0-2.43-1.05h-20.68c-1.29 0-2.55.268-3.73.796l-1.76.787c-.2.086-.39.186-.57.29-.84.278-1.74.424-2.64.424h-6.08c-.82 0-1.63-.123-2.41-.355-.22-.127-.44-.25-.68-.36l-1.76-.786a9.097 9.097 0 0 0-3.73-.797h-20.93c-.98 0-1.92.414-2.57 1.138a3.489 3.489 0 0 0-.89 2.67l1.02 10.7c.1 1.132.53 2.206 1.23 3.107.87 1.11 1.91 2.074 3.08 2.866l.22.14a6.597 6.597 0 0 0 3.7 1.134h13.71c2.17 0 4.28-.778 5.94-2.198l.28-.236a9.158 9.158 0 0 0 2.96-4.795l1.36-5.536a6.43 6.43 0 0 0-.14-3.54 5.408 5.408 0 0 1 5.45-.109 6.535 6.535 0 0 0-.18 3.649l1.36 5.536a9.14 9.14 0 0 0 2.96 4.795l.27.24a9.214 9.214 0 0 0 5.95 2.194h13.7c1.33 0 2.61-.392 3.72-1.133l.25-.173a13.424 13.424 0 0 0 3.01-2.789 5.853 5.853 0 0 0 1.22-3.207l.01-.186.68-10.709a3.349 3.349 0 0 0-.9-2.502v-.005Zm-38.69 7.607-1.37 5.54a7.76 7.76 0 0 1-2.51 4.076l-.27.237a7.812 7.812 0 0 1-5.05 1.865h-13.71c-1.05 0-2.07-.31-2.94-.9l-.22-.142a12.115 12.115 0 0 1-2.76-2.57 4.458 4.458 0 0 1-.95-2.356l-1.02-10.732c-.06-.596.13-1.174.53-1.615a2.1 2.1 0 0 1 1.55-.687h20.94c1.1 0 2.16.228 3.17.678l1.76.787a5.051 5.051 0 0 1 2.84 5.819h.01Zm37.53 5.695v.114c-.08.855-.4 1.66-.93 2.338-.77.97-1.67 1.81-2.69 2.498l-.26.172c-.87.587-1.89.901-2.94.901h-13.7c-1.85 0-3.64-.664-5.05-1.865l-.28-.241a7.76 7.76 0 0 1-2.51-4.076l-1.36-5.536a5.035 5.035 0 0 1 2.84-5.819l1.76-.787a7.713 7.713 0 0 1 3.17-.678h20.68a1.947 1.947 0 0 1 1.95 2.093l-.68 10.886Z"/><path fill="url(#paint10_linear_3414_4795)" fill-opacity=".4" d="M1161.69 33.153s-3.25-1.365-3.47-7.233c1.34-7.698 9.48-15.5 24.48-18.593 0 0-25.4 8.825-21.01 25.826Z" opacity=".8"/><path fill="#FF855A" d="M917.438 32.866v35.225a55.062 55.062 0 0 0 35.317 51.425l4.814 1.852a13.674 13.674 0 0 0 9.952 0l4.814-1.852c21.292-8.192 35.315-28.651 35.315-51.425V32.866c0-2.73-1.57-5.184-4.02-6.295-12.965-5.647-26.991-8.517-41.108-8.378a100.357 100.357 0 0 0-41.103 8.378c-2.454 1.111-4.027 3.61-4.027 6.295h.046Z"/><path fill="#FFF6F2" d="M939.054 60.343a3.41 3.41 0 0 1 3.411-3.41h41.605a3.41 3.41 0 0 1 3.411 3.41v7.707a3.41 3.41 0 0 1-3.411 3.41h-41.605a3.41 3.41 0 0 1-3.411-3.41v-7.707Z"/><path fill="#FFF6F2" d="M967.119 39.982a3.41 3.41 0 0 1 3.41 3.41V85a3.41 3.41 0 0 1-3.41 3.41h-7.707a3.41 3.41 0 0 1-3.411-3.41V43.393a3.41 3.41 0 0 1 3.411-3.41h7.707Z"/><path fill="#FF7F51" d="M1344.87 144.604v33.295c0 16.275 7.13 38.501 37.93 50.357a12.94 12.94 0 0 0 9.41 0c30.8-11.856 37.93-34.213 37.93-50.357v-33.295c0-2.581-1.49-4.9-3.81-5.95a94.98 94.98 0 0 0-38.85-7.919 94.847 94.847 0 0 0-38.85 7.919c-2.32 1.05-3.8 3.413-3.8 5.95h.04Z"/><path fill="#FFF6F2" d="M1391.36 194.248c-1 1.067-2.38 1.636-3.84 1.636a5.34 5.34 0 0 1-3.84-1.636l-14.33-14.936a10.764 10.764 0 0 1-2.03-12.412c1.56-3.094 4.48-5.263 7.89-5.797 3.42-.569 6.9.569 9.32 3.023l2.95 2.952 2.95-2.952a10.797 10.797 0 0 1 9.32-3.023c3.42.569 6.37 2.703 7.9 5.797 2.06 4.125 1.24 9.14-2.03 12.412l-14.33 14.936h.07Z"/><path fill="#FF8053" d="M1391.35 34.85c0-1.03.76-1.883 1.68-1.883h36.88c.92 0 1.68.854 1.68 1.883v11.302c0 1.03-.76 1.883-1.68 1.883h-36.88c-.92 0-1.68-.854-1.68-1.883V34.85ZM1429.06 56.825c-2.62-1.959-4.18-5.249-4.18-8.79h-26.82c0 3.541-1.57 6.831-4.18 8.79l-1.39 1.055c-2.79 2.11-4.47 5.625-4.47 9.393v23.2c0 4.17 3 7.534 6.71 7.534h33.52c3.72 0 6.71-3.365 6.71-7.534v-23.2c0-3.767-1.68-7.309-4.47-9.393l-1.41-1.055h-.02Z"/><path fill="#FFAE91" d="M1415.99 72.521c.16 1.557-.31 3.09-1.29 4.194-.99 1.105-2.35 1.633-3.74 1.457-1.38.176-2.75-.352-3.73-1.457s-1.45-2.637-1.3-4.194c0-4.169 5.03-9.418 5.03-9.418s5.03 5.25 5.03 9.418Z"/><path fill="#FF7240" d="M1307.92 45.544c-20.39 0-36.91 16.526-36.91 36.91 0 6.55 1.7 12.702 4.7 18.035a5.964 5.964 0 0 1-1.06 7.171l-8.86 8.654c-1.14 1.113-.35 3.049 1.24 3.049h40.89c20.38 0 36.91-16.525 36.91-36.91 0-20.384-16.53-36.91-36.91-36.91Z"/><rect width="26.095" height="7.249" x="1289.9" y="69.457" fill="#C73F0E" rx="3.624"/><rect width="34.794" height="7.249" x="1289.9" y="85.402" fill="#C73F0E" rx="3.624"/><path fill="#fff" d="M52.48 71.6h-7.117l10.845-31.417h8.56L75.598 71.6h-7.117l-7.87-24.238h-.245L52.48 71.6Zm-.444-12.35h16.813v5.186H52.036V59.25Zm46.277-4.494-5.982.368a3.091 3.091 0 0 0-.66-1.38c-.337-.42-.782-.752-1.335-.998-.541-.255-1.19-.383-1.948-.383-1.012 0-1.866.215-2.562.644-.695.42-1.043.982-1.043 1.688 0 .562.225 1.038.675 1.426.45.389 1.222.7 2.317.936l4.264.86c2.291.47 3.999 1.226 5.124 2.27 1.125 1.043 1.687 2.413 1.687 4.11 0 1.545-.455 2.9-1.365 4.066-.9 1.166-2.137 2.076-3.712 2.73-1.565.645-3.37.967-5.415.967-3.12 0-5.605-.65-7.456-1.948-1.84-1.31-2.92-3.089-3.237-5.339l6.428-.337c.194.95.665 1.677 1.411 2.178.747.49 1.703.736 2.869.736 1.145 0 2.066-.22 2.761-.66.706-.45 1.064-1.027 1.074-1.733-.01-.593-.26-1.079-.752-1.457-.49-.389-1.247-.685-2.27-.89l-4.08-.813c-2.302-.46-4.014-1.258-5.14-2.393-1.114-1.135-1.672-2.582-1.672-4.341 0-1.514.41-2.818 1.228-3.912.828-1.094 1.989-1.938 3.482-2.531 1.503-.593 3.262-.89 5.277-.89 2.976 0 5.318.63 7.026 1.887 1.718 1.258 2.72 2.97 3.006 5.139Zm10.574 10.063.015-7.839h.951l7.548-8.943h7.501l-10.14 11.843h-1.549l-4.326 4.94Zm-5.922 6.78V40.184h6.535V71.6h-6.535Zm14.727 0-6.934-10.262 4.357-4.617 10.232 14.88h-7.655Zm27.133.445c-1.503 0-2.843-.26-4.019-.782-1.176-.532-2.107-1.314-2.792-2.347-.675-1.043-1.012-2.342-1.012-3.896 0-1.31.24-2.409.72-3.299a5.845 5.845 0 0 1 1.964-2.147 9.515 9.515 0 0 1 2.823-1.227 21.501 21.501 0 0 1 3.344-.583 84.651 84.651 0 0 0 3.313-.4c.839-.132 1.447-.326 1.826-.582.378-.256.567-.634.567-1.135v-.092c0-.972-.306-1.724-.92-2.255-.603-.532-1.462-.798-2.577-.798-1.176 0-2.112.26-2.807.782-.696.512-1.156 1.156-1.381 1.933l-6.044-.49c.307-1.432.91-2.67 1.81-3.713.9-1.053 2.061-1.861 3.482-2.424 1.432-.572 3.089-.859 4.97-.859 1.31 0 2.562.154 3.759.46 1.207.307 2.275.783 3.206 1.427a6.931 6.931 0 0 1 2.224 2.485c.542 1.002.813 2.204.813 3.605V71.6h-6.197v-3.268h-.184a6.66 6.66 0 0 1-1.519 1.948c-.634.553-1.396.987-2.286 1.304-.889.307-1.917.46-3.083.46Zm1.872-4.51c.961 0 1.81-.189 2.546-.567.736-.389 1.314-.91 1.733-1.565.42-.654.629-1.396.629-2.224v-2.5c-.204.132-.485.255-.843.367-.348.103-.742.2-1.181.292-.44.082-.88.158-1.32.23l-1.196.169c-.767.112-1.437.291-2.01.537-.573.245-1.017.578-1.334.997-.318.409-.476.92-.476 1.534 0 .89.322 1.57.966 2.04.655.46 1.483.69 2.486.69Zm23.002-9.557V71.6h-6.535V48.037h6.228v4.157h.277a6.571 6.571 0 0 1 2.623-3.252c1.227-.808 2.715-1.212 4.464-1.212 1.636 0 3.063.358 4.28 1.074 1.217.716 2.163 1.739 2.838 3.068.675 1.32 1.012 2.894 1.012 4.725V71.6h-6.535V57.763c.01-1.442-.358-2.567-1.104-3.375-.747-.818-1.775-1.227-3.084-1.227-.879 0-1.657.189-2.331.567-.665.379-1.187.93-1.565 1.657-.368.716-.558 1.58-.568 2.593Zm23.528 22.459c-.828 0-1.605-.067-2.331-.2-.716-.123-1.309-.281-1.78-.475l1.473-4.879c.767.236 1.457.364 2.071.384.624.02 1.16-.123 1.61-.43.461-.306.834-.828 1.12-1.564l.384-.997-8.453-24.238h6.873l4.878 17.304h.245l4.925-17.304h6.918l-9.158 26.11c-.44 1.267-1.038 2.372-1.795 3.313a7.348 7.348 0 0 1-2.838 2.193c-1.145.522-2.526.783-4.142.783Zm33.81-32.399v4.909h-14.19v-4.909h14.19Zm-10.968-5.645h6.535v21.967c0 .603.092 1.074.276 1.411.184.328.44.558.767.69.338.134.726.2 1.166.2.307 0 .613-.025.92-.077.307-.061.542-.107.706-.138l1.028 4.863c-.328.102-.788.22-1.381.353-.593.143-1.314.23-2.163.26-1.575.062-2.955-.148-4.142-.628-1.176-.48-2.091-1.227-2.746-2.24-.654-1.012-.976-2.29-.966-3.835V42.392Zm22.266 15.585V71.6H231.8V40.183h6.351v12.011h.276c.532-1.39 1.391-2.48 2.577-3.267 1.187-.798 2.675-1.197 4.464-1.197 1.637 0 3.063.358 4.28 1.074 1.228.706 2.179 1.723 2.854 3.053.685 1.319 1.022 2.899 1.012 4.74V71.6h-6.535V57.763c.01-1.453-.358-2.583-1.104-3.39-.737-.808-1.77-1.212-3.099-1.212-.89 0-1.677.189-2.362.567-.675.379-1.207.93-1.596 1.657-.378.716-.572 1.58-.583 2.593ZM258.757 71.6V48.037h6.535V71.6h-6.535ZM262.04 45c-.972 0-1.805-.322-2.501-.967-.685-.654-1.027-1.437-1.027-2.347 0-.9.342-1.672 1.027-2.316.696-.655 1.529-.982 2.501-.982.971 0 1.8.327 2.485.982.695.644 1.043 1.416 1.043 2.316 0 .91-.348 1.693-1.043 2.347-.685.645-1.514.967-2.485.967Zm15.022 12.977V71.6h-6.535V48.037h6.228v4.157h.276a6.577 6.577 0 0 1 2.623-3.252c1.227-.808 2.715-1.212 4.464-1.212 1.637 0 3.063.358 4.28 1.074 1.217.716 2.163 1.739 2.838 3.068.675 1.32 1.013 2.894 1.013 4.725V71.6h-6.535V57.763c.01-1.442-.358-2.567-1.105-3.375-.746-.818-1.774-1.227-3.083-1.227-.88 0-1.657.189-2.332.567-.665.379-1.186.93-1.565 1.657-.368.716-.557 1.58-.567 2.593Zm30.952 22.95c-2.116 0-3.932-.292-5.445-.875-1.504-.573-2.7-1.355-3.59-2.347-.89-.992-1.467-2.107-1.733-3.344l6.044-.813c.184.47.475.91.874 1.32.399.408.926.735 1.58.98.665.257 1.473.384 2.424.384 1.421 0 2.592-.347 3.513-1.043.93-.685 1.396-1.835 1.396-3.451v-4.31h-.276c-.287.654-.716 1.272-1.289 1.855s-1.309 1.059-2.209 1.427c-.9.368-1.974.552-3.221.552-1.77 0-3.38-.409-4.833-1.227-1.442-.828-2.592-2.091-3.451-3.79-.849-1.707-1.273-3.865-1.273-6.473 0-2.669.434-4.898 1.304-6.688.869-1.79 2.024-3.13 3.466-4.02a8.963 8.963 0 0 1 4.771-1.334c1.32 0 2.424.225 3.314.675.89.44 1.605.992 2.147 1.657.553.654.977 1.299 1.274 1.933h.245v-3.958h6.489V71.83c0 2.004-.491 3.681-1.473 5.031-.981 1.35-2.342 2.363-4.08 3.038-1.728.685-3.718 1.028-5.968 1.028Zm.139-14.574c1.053 0 1.943-.26 2.669-.782.736-.532 1.299-1.289 1.687-2.27.399-.992.598-2.179.598-3.56 0-1.38-.194-2.577-.582-3.589-.389-1.023-.952-1.815-1.688-2.378-.736-.562-1.631-.843-2.684-.843-1.074 0-1.979.291-2.716.874-.736.573-1.293 1.37-1.672 2.393-.378 1.023-.567 2.204-.567 3.544 0 1.36.189 2.536.567 3.528.389.982.946 1.743 1.672 2.286.737.531 1.642.797 2.716.797Zm33.299 5.692c-1.503 0-2.843-.261-4.019-.783-1.176-.532-2.106-1.314-2.792-2.347-.675-1.043-1.012-2.342-1.012-3.896 0-1.31.24-2.409.721-3.299a5.842 5.842 0 0 1 1.963-2.147 9.537 9.537 0 0 1 2.823-1.227 21.522 21.522 0 0 1 3.344-.583 84.74 84.74 0 0 0 3.314-.4c.838-.132 1.447-.326 1.825-.582.379-.256.568-.634.568-1.135v-.092c0-.972-.307-1.724-.921-2.255-.603-.532-1.462-.798-2.577-.798-1.176 0-2.112.26-2.807.782-.696.512-1.156 1.156-1.381 1.933l-6.044-.49c.307-1.432.91-2.67 1.81-3.713.9-1.053 2.061-1.861 3.483-2.424 1.431-.572 3.088-.859 4.97-.859 1.309 0 2.562.154 3.758.46 1.207.307 2.276.783 3.206 1.427a6.934 6.934 0 0 1 2.225 2.485c.542 1.002.813 2.204.813 3.605V71.6h-6.198v-3.268h-.184a6.627 6.627 0 0 1-1.519 1.948c-.634.553-1.395.987-2.285 1.304-.89.307-1.918.46-3.084.46Zm1.872-4.51c.961 0 1.81-.19 2.546-.568.737-.389 1.315-.91 1.734-1.565.419-.654.629-1.396.629-2.224v-2.5c-.205.132-.486.255-.844.367a15.4 15.4 0 0 1-1.181.292c-.44.082-.88.158-1.319.23l-1.197.169c-.767.112-1.437.291-2.01.537-.572.245-1.017.578-1.334.997-.317.409-.476.92-.476 1.534 0 .89.322 1.57.967 2.04.654.46 1.483.69 2.485.69Zm16.59 4.065V40.183h6.535v11.812h.2c.286-.634.7-1.279 1.242-1.933.553-.665 1.268-1.217 2.148-1.657.89-.45 1.994-.675 3.313-.675 1.718 0 3.304.45 4.756 1.35 1.452.89 2.613 2.235 3.482 4.035.869 1.79 1.304 4.034 1.304 6.734 0 2.628-.424 4.848-1.273 6.658-.839 1.8-1.984 3.165-3.436 4.096-1.442.92-3.058 1.38-4.848 1.38-1.268 0-2.347-.21-3.237-.629-.879-.42-1.6-.946-2.163-1.58-.562-.644-.992-1.294-1.288-1.948h-.292V71.6h-6.443Zm6.397-11.782c0 1.401.195 2.623.583 3.667.389 1.043.951 1.856 1.688 2.439.736.572 1.631.859 2.684.859 1.064 0 1.964-.292 2.7-.875.736-.593 1.294-1.41 1.672-2.454.389-1.053.583-2.265.583-3.636 0-1.36-.189-2.556-.568-3.59-.378-1.032-.935-1.84-1.672-2.423-.736-.583-1.641-.874-2.715-.874-1.063 0-1.963.28-2.7.843-.726.563-1.283 1.36-1.672 2.393-.388 1.033-.583 2.25-.583 3.651Zm31.59 12.242c-2.383 0-4.444-.506-6.182-1.519-1.729-1.022-3.063-2.444-4.004-4.264-.941-1.831-1.412-3.953-1.412-6.367 0-2.434.471-4.56 1.412-6.381.941-1.83 2.275-3.252 4.004-4.265 1.738-1.023 3.799-1.534 6.182-1.534 2.382 0 4.438.512 6.166 1.534 1.739 1.013 3.079 2.434 4.02 4.265.94 1.82 1.411 3.947 1.411 6.381 0 2.414-.471 4.536-1.411 6.367-.941 1.82-2.281 3.242-4.02 4.264-1.728 1.013-3.784 1.519-6.166 1.519Zm.03-5.063c1.084 0 1.989-.306 2.716-.92.726-.624 1.273-1.472 1.641-2.546.378-1.074.568-2.296.568-3.667 0-1.37-.19-2.592-.568-3.666-.368-1.074-.915-1.923-1.641-2.547-.727-.623-1.632-.935-2.716-.935-1.094 0-2.014.312-2.761.935-.736.624-1.294 1.473-1.672 2.547-.368 1.074-.552 2.296-.552 3.666s.184 2.593.552 3.667c.378 1.074.936 1.922 1.672 2.546.747.614 1.667.92 2.761.92Zm30.926-5.43v-13.53h6.535V71.6h-6.274v-4.28h-.245a6.962 6.962 0 0 1-2.654 3.329c-1.228.838-2.726 1.257-4.495 1.257-1.575 0-2.961-.358-4.157-1.073-1.197-.716-2.132-1.734-2.807-3.053-.665-1.32-1.003-2.9-1.013-4.74V48.037h6.535v13.837c.01 1.39.384 2.49 1.12 3.298.736.808 1.723 1.212 2.961 1.212.787 0 1.523-.179 2.209-.537.685-.368 1.237-.91 1.656-1.626.43-.716.639-1.6.629-2.654Zm24.295-13.53v4.909h-14.189v-4.909h14.189Zm-10.968-5.645h6.535v21.967c0 .603.092 1.074.276 1.411.184.328.44.558.767.69.338.134.726.2 1.166.2.307 0 .614-.025.92-.077.307-.061.542-.107.706-.138l1.028 4.863c-.327.102-.788.22-1.381.353-.593.143-1.314.23-2.163.26-1.575.062-2.955-.148-4.142-.628-1.176-.48-2.091-1.227-2.746-2.24-.654-1.012-.976-2.29-.966-3.835V42.392Zm29.258 38.044c-.829 0-1.606-.067-2.332-.2-.716-.123-1.309-.281-1.779-.475l1.472-4.879c.767.236 1.458.364 2.071.384.624.02 1.161-.123 1.611-.43.46-.306.833-.828 1.12-1.564l.383-.997-8.452-24.238h6.872l4.878 17.304h.246l4.924-17.304h6.918l-9.158 26.11c-.439 1.267-1.038 2.372-1.794 3.313a7.362 7.362 0 0 1-2.838 2.193c-1.146.522-2.526.783-4.142.783Zm31.163-8.376c-2.382 0-4.443-.506-6.182-1.519-1.728-1.022-3.063-2.444-4.004-4.264-.94-1.831-1.411-3.953-1.411-6.367 0-2.434.471-4.56 1.411-6.381.941-1.83 2.276-3.252 4.004-4.265 1.739-1.023 3.8-1.534 6.182-1.534 2.383 0 4.439.512 6.167 1.534 1.739 1.013 3.078 2.434 4.019 4.265.941 1.82 1.412 3.947 1.412 6.381 0 2.414-.471 4.536-1.412 6.367-.941 1.82-2.28 3.242-4.019 4.264-1.728 1.013-3.784 1.519-6.167 1.519Zm.031-5.063c1.084 0 1.989-.306 2.715-.92.726-.624 1.274-1.472 1.642-2.546.378-1.074.567-2.296.567-3.667 0-1.37-.189-2.592-.567-3.666-.368-1.074-.916-1.923-1.642-2.547-.726-.623-1.631-.935-2.715-.935-1.094 0-2.015.312-2.761.935-.736.624-1.294 1.473-1.672 2.547-.368 1.074-.552 2.296-.552 3.666s.184 2.593.552 3.667c.378 1.074.936 1.922 1.672 2.546.746.614 1.667.92 2.761.92Zm30.926-5.43v-13.53h6.535V71.6h-6.274v-4.28h-.246a6.954 6.954 0 0 1-2.653 3.329c-1.228.838-2.726 1.257-4.495 1.257-1.575 0-2.961-.358-4.157-1.073-1.197-.716-2.133-1.734-2.808-3.053-.664-1.32-1.002-2.9-1.012-4.74V48.037h6.535v13.837c.01 1.39.383 2.49 1.12 3.298.736.808 1.723 1.212 2.96 1.212.788 0 1.524-.179 2.209-.537.686-.368 1.238-.91 1.657-1.626.43-.716.639-1.6.629-2.654ZM545.324 71.6V48.037h6.336v4.111h.245c.43-1.462 1.151-2.567 2.163-3.313 1.013-.757 2.178-1.136 3.498-1.136.327 0 .68.021 1.058.062.379.04.711.097.997.169v5.798a8.547 8.547 0 0 0-1.273-.245 11.436 11.436 0 0 0-1.488-.108c-.961 0-1.82.21-2.577.63a4.63 4.63 0 0 0-1.78 1.717c-.429.737-.644 1.586-.644 2.547v13.33h-6.535Zm34.209-13.622V71.6h-6.535V40.183h6.351v12.011h.276c.532-1.39 1.391-2.48 2.577-3.267 1.186-.798 2.674-1.197 4.464-1.197 1.636 0 3.063.358 4.28 1.074 1.227.706 2.178 1.723 2.853 3.053.685 1.319 1.023 2.899 1.013 4.74V71.6h-6.535V57.763c.01-1.453-.358-2.583-1.105-3.39-.736-.808-1.769-1.212-3.098-1.212-.89 0-1.678.189-2.363.567-.675.379-1.207.93-1.595 1.657-.379.716-.573 1.58-.583 2.593Zm31.16 14.082c-2.424 0-4.51-.491-6.259-1.473-1.739-.992-3.078-2.393-4.019-4.203-.941-1.82-1.412-3.973-1.412-6.458 0-2.424.471-4.551 1.412-6.382.941-1.83 2.265-3.257 3.973-4.28 1.718-1.023 3.733-1.534 6.044-1.534 1.554 0 3.002.25 4.341.752a9.64 9.64 0 0 1 3.529 2.224c1.012.992 1.799 2.24 2.362 3.743.562 1.493.844 3.242.844 5.247v1.794h-19.897v-4.05h13.745c0-.94-.204-1.774-.613-2.5a4.403 4.403 0 0 0-1.703-1.703c-.716-.419-1.55-.629-2.501-.629-.992 0-1.871.23-2.638.69a4.843 4.843 0 0 0-1.78 1.826c-.429.757-.649 1.6-.659 2.531v3.85c0 1.167.214 2.174.644 3.023a4.715 4.715 0 0 0 1.856 1.963c.798.46 1.744.69 2.838.69.726 0 1.391-.102 1.994-.306a4.14 4.14 0 0 0 1.55-.92c.429-.41.757-.91.982-1.504l6.044.399a8.256 8.256 0 0 1-1.887 3.804c-.941 1.074-2.158 1.913-3.651 2.516-1.483.593-3.196.89-5.139.89Zm21.798-.016c-1.503 0-2.843-.26-4.019-.782-1.176-.532-2.107-1.314-2.792-2.347-.675-1.043-1.012-2.342-1.012-3.896 0-1.31.24-2.409.721-3.299a5.834 5.834 0 0 1 1.963-2.147 9.526 9.526 0 0 1 2.823-1.227 21.501 21.501 0 0 1 3.344-.583 84.98 84.98 0 0 0 3.314-.4c.838-.132 1.447-.326 1.825-.582.378-.256.568-.634.568-1.135v-.092c0-.972-.307-1.724-.921-2.255-.603-.532-1.462-.798-2.577-.798-1.176 0-2.112.26-2.807.782-.696.512-1.156 1.156-1.381 1.933l-6.044-.49c.307-1.432.91-2.67 1.81-3.713.9-1.053 2.061-1.861 3.482-2.424 1.432-.572 3.089-.859 4.971-.859 1.309 0 2.562.154 3.758.46 1.207.307 2.276.783 3.206 1.427a6.943 6.943 0 0 1 2.225 2.485c.542 1.002.813 2.204.813 3.605V71.6h-6.198v-3.268h-.184a6.644 6.644 0 0 1-1.519 1.948c-.634.553-1.396.987-2.285 1.304-.89.307-1.918.46-3.084.46Zm1.872-4.51c.961 0 1.81-.189 2.546-.567.737-.389 1.314-.91 1.734-1.565.419-.654.629-1.396.629-2.224v-2.5c-.205.132-.486.255-.844.367-.348.103-.742.2-1.181.292-.44.082-.88.158-1.32.23l-1.196.169c-.767.112-1.437.291-2.01.537-.572.245-1.017.578-1.334.997-.317.409-.476.92-.476 1.534 0 .89.322 1.57.967 2.04.654.46 1.483.69 2.485.69Zm23.002-27.351V71.6h-6.535V40.183h6.535Zm17.768 7.854v4.909h-14.189v-4.909h14.189Zm-10.968-5.645h6.535v21.967c0 .603.092 1.074.276 1.411.184.328.44.558.767.69.338.134.726.2 1.166.2.307 0 .614-.025.92-.077.307-.061.542-.107.706-.138l1.028 4.863c-.327.102-.788.22-1.381.353-.593.143-1.314.23-2.163.26-1.575.062-2.955-.148-4.142-.628-1.176-.48-2.091-1.227-2.746-2.24-.654-1.012-.976-2.29-.966-3.835V42.392Zm22.266 15.585V71.6h-6.535V40.183h6.351v12.011h.276c.532-1.39 1.391-2.48 2.578-3.267 1.186-.798 2.674-1.197 4.464-1.197 1.636 0 3.063.358 4.279 1.074 1.228.706 2.179 1.723 2.854 3.053.685 1.319 1.022 2.899 1.012 4.74V71.6h-6.535V57.763c.011-1.453-.358-2.583-1.104-3.39-.737-.808-1.769-1.212-3.099-1.212-.89 0-1.677.189-2.362.567-.675.379-1.207.93-1.596 1.657-.378.716-.572 1.58-.583 2.593ZM710.673 72c-1.013 0-1.882-.358-2.608-1.074-.716-.727-1.074-1.596-1.074-2.608 0-1.002.358-1.861 1.074-2.577.726-.716 1.595-1.074 2.608-1.074.982 0 1.841.358 2.577 1.074.736.716 1.104 1.575 1.104 2.577 0 .675-.173 1.294-.521 1.856a3.975 3.975 0 0 1-1.335 1.335 3.515 3.515 0 0 1-1.825.49ZM60.302 106.618a6.989 6.989 0 0 0-.843-1.753 5.395 5.395 0 0 0-1.23-1.337 5.131 5.131 0 0 0-1.609-.843 6.402 6.402 0 0 0-1.976-.291 5.89 5.89 0 0 0-3.207.911c-.963.607-1.728 1.501-2.296 2.683-.569 1.183-.853 2.633-.853 4.351s.287 3.168.862 4.35c.575 1.182 1.353 2.076 2.335 2.684.982.607 2.086.91 3.314.91 1.136 0 2.138-.242 3.003-.726a5.153 5.153 0 0 0 2.035-2.074c.49-.898.736-1.954.736-3.168l.736.155h-5.968v-2.131h7.557v2.131c0 1.634-.349 3.055-1.046 4.263a7.227 7.227 0 0 1-2.868 2.81c-1.214.659-2.61.988-4.185.988-1.757 0-3.301-.413-4.632-1.24-1.324-.827-2.357-2.002-3.1-3.527-.736-1.524-1.104-3.333-1.104-5.425 0-1.57.21-2.981.63-4.234.426-1.26 1.026-2.332 1.801-3.217a7.87 7.87 0 0 1 2.752-2.034c1.06-.472 2.225-.708 3.498-.708a8.81 8.81 0 0 1 2.926.475c.91.31 1.72.753 2.431 1.327a7.562 7.562 0 0 1 1.793 2.045c.478.788.807 1.663.988 2.625h-2.48Zm12.64 13.952c-1.433 0-2.67-.317-3.71-.95-1.033-.639-1.831-1.53-2.393-2.674-.555-1.149-.833-2.486-.833-4.011 0-1.524.278-2.868.833-4.03.562-1.169 1.344-2.08 2.345-2.732 1.007-.659 2.183-.989 3.526-.989.776 0 1.54.13 2.297.388a5.686 5.686 0 0 1 2.063 1.259c.62.575 1.114 1.337 1.483 2.287.368.949.552 2.118.552 3.507v.969H67.634v-1.976h9.146c0-.84-.168-1.589-.504-2.248a3.796 3.796 0 0 0-1.415-1.56c-.607-.381-1.324-.572-2.15-.572-.911 0-1.7.226-2.365.679a4.46 4.46 0 0 0-1.52 1.743 5.125 5.125 0 0 0-.534 2.306v1.318c0 1.124.194 2.077.582 2.858.394.775.94 1.366 1.637 1.773.698.401 1.508.601 2.432.601.6 0 1.143-.084 1.628-.252.49-.174.913-.433 1.269-.775.355-.349.63-.782.823-1.298l2.21.62a4.895 4.895 0 0 1-1.173 1.976c-.549.562-1.227 1.001-2.035 1.318-.807.31-1.715.465-2.722.465Zm16.113-15.192v1.938h-7.712v-1.938h7.712Zm-5.464-3.565h2.286v14.184c0 .646.094 1.13.281 1.453.194.317.44.53.736.64.304.103.624.155.96.155.252 0 .458-.013.62-.039l.387-.078.465 2.054a4.643 4.643 0 0 1-.649.175c-.278.064-.63.097-1.056.097a4.599 4.599 0 0 1-1.899-.417 3.777 3.777 0 0 1-1.53-1.269c-.401-.569-.601-1.286-.601-2.151v-14.804Zm23.049 3.565v1.938h-7.712v-1.938h7.712Zm-5.465-3.565h2.287v14.184c0 .646.094 1.13.281 1.453.194.317.439.53.736.64.304.103.623.155.959.155.252 0 .459-.013.62-.039l.388-.078.465 2.054a4.627 4.627 0 0 1-.649.175c-.278.064-.63.097-1.056.097a4.598 4.598 0 0 1-1.899-.417 3.775 3.775 0 0 1-1.531-1.269c-.4-.569-.601-1.286-.601-2.151v-14.804Zm8.904 18.447v-14.882h2.209v2.248h.155c.271-.736.762-1.334 1.473-1.793.71-.458 1.511-.687 2.403-.687.168 0 .377.003.629.009.252.007.443.016.572.029v2.326a6.41 6.41 0 0 0-.533-.088 5.269 5.269 0 0 0-.862-.067c-.724 0-1.369.151-1.938.455a3.435 3.435 0 0 0-1.337 1.24c-.323.523-.484 1.121-.484 1.792v9.418h-2.287Zm19.53-6.085v-8.797h2.286v14.882h-2.286v-2.519h-.155c-.349.755-.891 1.398-1.628 1.928-.736.523-1.666.785-2.79.785-.93 0-1.757-.204-2.48-.611-.724-.413-1.292-1.033-1.706-1.86-.413-.833-.62-1.883-.62-3.149v-9.456h2.287v9.301c0 1.085.303 1.951.911 2.597.613.646 1.395.969 2.344.969.569 0 1.147-.146 1.735-.436.594-.291 1.091-.737 1.492-1.337.406-.601.61-1.367.61-2.297Zm17.015-5.464-2.053.581a3.844 3.844 0 0 0-.572-.998 2.775 2.775 0 0 0-1.008-.813c-.426-.214-.972-.32-1.637-.32-.911 0-1.67.21-2.277.63-.601.413-.901.939-.901 1.579 0 .568.207 1.017.62 1.347.413.329 1.059.603 1.938.823l2.209.543c1.33.323 2.322.817 2.974 1.482.653.659.979 1.508.979 2.548 0 .853-.246 1.615-.737 2.287-.484.671-1.162 1.201-2.034 1.588-.872.388-1.886.582-3.042.582-1.518 0-2.775-.33-3.769-.988-.995-.659-1.625-1.622-1.89-2.888l2.171-.542c.206.801.597 1.401 1.172 1.802.581.4 1.34.601 2.277.601 1.066 0 1.912-.226 2.538-.679.633-.458.95-1.007.95-1.647a1.73 1.73 0 0 0-.543-1.298c-.362-.355-.917-.62-1.666-.794l-2.481-.582c-1.362-.323-2.364-.823-3.003-1.501-.633-.685-.949-1.541-.949-2.568 0-.84.235-1.582.707-2.228.478-.646 1.127-1.153 1.947-1.521.827-.369 1.764-.553 2.81-.553 1.473 0 2.629.323 3.468.969.847.646 1.447 1.499 1.802 2.558Zm10.186-3.333v1.938h-7.713v-1.938h7.713Zm-5.465-3.565h2.287v14.184c0 .646.093 1.13.281 1.453.193.317.439.53.736.64.304.103.623.155.959.155.252 0 .459-.013.62-.039l.388-.078.465 2.054a4.666 4.666 0 0 1-.649.175c-.278.064-.63.097-1.056.097a4.598 4.598 0 0 1-1.899-.417 3.775 3.775 0 0 1-1.531-1.269c-.401-.569-.601-1.286-.601-2.151v-14.804Zm14.984 18.757c-1.434 0-2.671-.317-3.711-.95-1.034-.639-1.831-1.53-2.393-2.674-.556-1.149-.833-2.486-.833-4.011 0-1.524.277-2.868.833-4.03.562-1.169 1.343-2.08 2.344-2.732 1.008-.659 2.184-.989 3.527-.989.775 0 1.541.13 2.296.388a5.685 5.685 0 0 1 2.064 1.259c.62.575 1.114 1.337 1.482 2.287.368.949.553 2.118.553 3.507v.969h-11.472v-1.976h9.146c0-.84-.168-1.589-.504-2.248a3.788 3.788 0 0 0-1.414-1.56c-.607-.381-1.324-.572-2.151-.572-.911 0-1.699.226-2.364.679a4.457 4.457 0 0 0-1.521 1.743 5.128 5.128 0 0 0-.533 2.306v1.318c0 1.124.194 2.077.581 2.858.394.775.94 1.366 1.638 1.773.697.401 1.508.601 2.432.601.6 0 1.143-.084 1.627-.252a3.48 3.48 0 0 0 1.269-.775c.356-.349.63-.782.824-1.298l2.209.62a4.9 4.9 0 0 1-1.172 1.976c-.549.562-1.228 1.001-2.035 1.318-.807.31-1.715.465-2.722.465Zm15.259 0c-1.24 0-2.335-.313-3.284-.94-.95-.633-1.693-1.524-2.229-2.674-.536-1.156-.804-2.522-.804-4.098 0-1.563.268-2.92.804-4.07.536-1.149 1.282-2.037 2.238-2.664.956-.626 2.061-.94 3.314-.94.969 0 1.734.162 2.296.485.568.316 1.001.678 1.298 1.085.304.4.54.73.708.988h.193v-7.324h2.287v19.842H186.2v-2.287h-.271c-.168.272-.407.614-.717 1.027-.31.407-.753.772-1.328 1.095-.575.317-1.34.475-2.296.475Zm.31-2.054c.917 0 1.692-.239 2.325-.717.633-.485 1.115-1.153 1.444-2.006.329-.859.494-1.85.494-2.974 0-1.111-.161-2.083-.484-2.916-.323-.84-.801-1.492-1.434-1.957-.633-.472-1.415-.708-2.345-.708-.969 0-1.776.249-2.422.746-.639.491-1.121 1.16-1.444 2.006-.316.84-.474 1.783-.474 2.829 0 1.059.161 2.022.484 2.887.33.859.814 1.544 1.453 2.054.646.504 1.447.756 2.403.756Zm23.069 2.093c-.943 0-1.799-.178-2.568-.533a4.413 4.413 0 0 1-1.831-1.56c-.452-.685-.678-1.512-.678-2.48 0-.853.168-1.544.504-2.074a3.55 3.55 0 0 1 1.346-1.259 7.075 7.075 0 0 1 1.861-.679 22.8 22.8 0 0 1 2.063-.368 93.244 93.244 0 0 1 2.2-.261c.568-.065.981-.171 1.24-.32.264-.149.397-.407.397-.775v-.078c0-.956-.262-1.698-.785-2.228-.517-.53-1.301-.794-2.354-.794-1.092 0-1.948.239-2.568.717-.62.477-1.056.988-1.308 1.53l-2.17-.775c.388-.904.904-1.608 1.55-2.112a5.83 5.83 0 0 1 2.132-1.066 8.877 8.877 0 0 1 2.286-.31c.478 0 1.027.058 1.647.175.627.11 1.231.339 1.812.688.588.348 1.076.875 1.463 1.579.388.704.581 1.647.581 2.829v9.805h-2.286v-2.015h-.116c-.155.322-.414.668-.775 1.036-.362.368-.843.682-1.444.94-.601.258-1.334.388-2.199.388Zm.348-2.054c.905 0 1.667-.178 2.287-.533.626-.356 1.098-.814 1.414-1.376a3.507 3.507 0 0 0 .485-1.773v-2.093c-.097.116-.31.223-.64.32-.323.09-.697.171-1.123.242-.42.065-.83.123-1.231.175-.394.045-.714.083-.959.116a8.638 8.638 0 0 0-1.666.378c-.511.168-.924.423-1.241.765-.31.336-.465.794-.465 1.376 0 .794.294 1.395.882 1.802.594.4 1.347.601 2.257.601Zm12.932-7.247v8.952h-2.286v-14.882h2.209v2.325h.194a4.251 4.251 0 0 1 1.588-1.821c.711-.465 1.628-.698 2.752-.698 1.008 0 1.889.207 2.645.62.756.407 1.343 1.027 1.763 1.861.42.826.63 1.873.63 3.139v9.456h-2.286v-9.301c0-1.169-.304-2.08-.911-2.732-.607-.659-1.441-.989-2.5-.989-.73 0-1.382.159-1.957.475a3.403 3.403 0 0 0-1.347 1.386c-.329.607-.494 1.343-.494 2.209Zm24.214-2.597-2.054.581a3.811 3.811 0 0 0-.571-.998 2.784 2.784 0 0 0-1.008-.813c-.426-.214-.972-.32-1.637-.32-.911 0-1.67.21-2.277.63-.601.413-.901.939-.901 1.579 0 .568.207 1.017.62 1.347.413.329 1.059.603 1.938.823l2.209.543c1.33.323 2.322.817 2.974 1.482.653.659.979 1.508.979 2.548 0 .853-.246 1.615-.737 2.287-.484.671-1.162 1.201-2.034 1.588-.872.388-1.886.582-3.042.582-1.518 0-2.775-.33-3.769-.988-.995-.659-1.625-1.622-1.89-2.888l2.171-.542c.206.801.597 1.401 1.172 1.802.581.4 1.34.601 2.277.601 1.066 0 1.912-.226 2.538-.679.633-.458.95-1.007.95-1.647a1.73 1.73 0 0 0-.543-1.298c-.362-.355-.917-.62-1.666-.794l-2.481-.582c-1.362-.323-2.364-.823-3.003-1.501-.633-.685-.95-1.541-.95-2.568 0-.84.236-1.582.708-2.228.478-.646 1.127-1.153 1.947-1.521.827-.369 1.763-.553 2.81-.553 1.472 0 2.629.323 3.468.969.846.646 1.447 1.499 1.802 2.558Zm7.085 11.549-4.534-14.882h2.403l3.216 11.394h.155l3.178-11.394h2.442l3.139 11.355h.155l3.216-11.355h2.403l-4.534 14.882h-2.248l-3.255-11.433h-.233l-3.255 11.433h-2.248Zm24.529.31c-1.434 0-2.671-.317-3.71-.95-1.034-.639-1.832-1.53-2.394-2.674-.555-1.149-.833-2.486-.833-4.011 0-1.524.278-2.868.833-4.03.562-1.169 1.344-2.08 2.345-2.732 1.008-.659 2.183-.989 3.527-.989.775 0 1.54.13 2.296.388a5.694 5.694 0 0 1 2.064 1.259c.62.575 1.114 1.337 1.482 2.287.368.949.552 2.118.552 3.507v.969h-11.471v-1.976h9.146c0-.84-.168-1.589-.504-2.248a3.795 3.795 0 0 0-1.414-1.56c-.608-.381-1.325-.572-2.151-.572-.911 0-1.699.226-2.364.679a4.457 4.457 0 0 0-1.521 1.743 5.115 5.115 0 0 0-.533 2.306v1.318c0 1.124.193 2.077.581 2.858.394.775.94 1.366 1.637 1.773.698.401 1.509.601 2.432.601a4.95 4.95 0 0 0 1.628-.252 3.48 3.48 0 0 0 1.269-.775c.355-.349.63-.782.824-1.298l2.209.62a4.902 4.902 0 0 1-1.173 1.976c-.549.562-1.227 1.001-2.034 1.318-.808.31-1.715.465-2.723.465Zm9.64-.31v-14.882h2.209v2.248h.155c.272-.736.763-1.334 1.473-1.793.711-.458 1.511-.687 2.403-.687.168 0 .378.003.63.009.251.007.442.016.571.029v2.326a6.41 6.41 0 0 0-.533-.088 5.26 5.26 0 0 0-.862-.067c-.723 0-1.369.151-1.938.455a3.435 3.435 0 0 0-1.337 1.24c-.323.523-.484 1.121-.484 1.792v9.418h-2.287Zm20.693-11.549-2.054.581a3.816 3.816 0 0 0-.572-.998 2.772 2.772 0 0 0-1.007-.813c-.427-.214-.973-.32-1.638-.32-.911 0-1.67.21-2.277.63-.6.413-.901.939-.901 1.579 0 .568.207 1.017.62 1.347.414.329 1.06.603 1.938.823l2.209.543c1.331.323 2.322.817 2.974 1.482.653.659.979 1.508.979 2.548 0 .853-.245 1.615-.736 2.287-.485.671-1.163 1.201-2.035 1.588-.872.388-1.886.582-3.042.582-1.518 0-2.774-.33-3.769-.988-.995-.659-1.624-1.622-1.889-2.888l2.17-.542c.207.801.597 1.401 1.172 1.802.582.4 1.341.601 2.277.601 1.066 0 1.912-.226 2.539-.679.632-.458.949-1.007.949-1.647a1.73 1.73 0 0 0-.543-1.298c-.361-.355-.917-.62-1.666-.794l-2.48-.582c-1.363-.323-2.364-.823-3.004-1.501-.633-.685-.949-1.541-.949-2.568 0-.84.236-1.582.707-2.228.478-.646 1.127-1.153 1.947-1.521.827-.369 1.764-.553 2.81-.553 1.473 0 2.629.323 3.469.969.846.646 1.446 1.499 1.802 2.558Zm17.006 11.859c-1.241 0-2.335-.313-3.285-.94-.949-.633-1.692-1.524-2.228-2.674-.536-1.156-.804-2.522-.804-4.098 0-1.563.268-2.92.804-4.07.536-1.149 1.282-2.037 2.238-2.664.956-.626 2.06-.94 3.313-.94.969 0 1.735.162 2.297.485.568.316 1.001.678 1.298 1.085.303.4.539.73.707.988h.194v-7.324h2.286v19.842h-2.209v-2.287h-.271c-.168.272-.407.614-.717 1.027-.31.407-.752.772-1.327 1.095-.575.317-1.34.475-2.296.475Zm.31-2.054c.917 0 1.692-.239 2.325-.717.633-.485 1.114-1.153 1.443-2.006.33-.859.495-1.85.495-2.974 0-1.111-.162-2.083-.485-2.916-.323-.84-.801-1.492-1.434-1.957-.633-.472-1.414-.708-2.344-.708-.969 0-1.777.249-2.423.746-.639.491-1.12 1.16-1.443 2.006-.317.84-.475 1.783-.475 2.829 0 1.059.162 2.022.485 2.887.329.859.813 1.544 1.453 2.054.646.504 1.447.756 2.403.756Zm11.016 1.744v-14.882h2.286v14.882h-2.286Zm1.162-17.362c-.446 0-.83-.152-1.153-.456a1.463 1.463 0 0 1-.475-1.094c0-.427.159-.792.475-1.095a1.625 1.625 0 0 1 1.153-.456c.446 0 .827.152 1.143.456.323.303.485.668.485 1.095 0 .426-.162.791-.485 1.094a1.59 1.59 0 0 1-1.143.456Zm5.312 17.362v-14.882h2.209v2.248h.155c.271-.736.762-1.334 1.473-1.793.71-.458 1.511-.687 2.402-.687.168 0 .378.003.63.009.252.007.443.016.572.029v2.326a6.49 6.49 0 0 0-.533-.088 5.269 5.269 0 0 0-.862-.067c-.724 0-1.37.151-1.938.455a3.428 3.428 0 0 0-1.337 1.24c-.323.523-.485 1.121-.485 1.792v9.418h-2.286Zm15.938.31c-1.434 0-2.671-.317-3.711-.95-1.034-.639-1.831-1.53-2.393-2.674-.556-1.149-.833-2.486-.833-4.011 0-1.524.277-2.868.833-4.03.562-1.169 1.343-2.08 2.344-2.732 1.008-.659 2.184-.989 3.527-.989.775 0 1.541.13 2.296.388a5.685 5.685 0 0 1 2.064 1.259c.62.575 1.114 1.337 1.482 2.287.368.949.553 2.118.553 3.507v.969h-11.472v-1.976h9.146c0-.84-.168-1.589-.504-2.248a3.788 3.788 0 0 0-1.414-1.56c-.607-.381-1.324-.572-2.151-.572-.911 0-1.699.226-2.364.679a4.457 4.457 0 0 0-1.521 1.743 5.128 5.128 0 0 0-.533 2.306v1.318c0 1.124.194 2.077.581 2.858.394.775.94 1.366 1.638 1.773.697.401 1.508.601 2.432.601.6 0 1.143-.084 1.627-.252a3.48 3.48 0 0 0 1.269-.775c.356-.349.63-.782.824-1.298l2.209.62a4.9 4.9 0 0 1-1.172 1.976c-.549.562-1.228 1.001-2.035 1.318-.807.31-1.715.465-2.722.465Zm15.685 0c-1.395 0-2.596-.33-3.604-.988-1.007-.659-1.782-1.567-2.325-2.723-.543-1.156-.814-2.477-.814-3.963 0-1.511.278-2.845.833-4.001.562-1.163 1.344-2.07 2.345-2.722 1.008-.659 2.183-.989 3.527-.989 1.046 0 1.989.194 2.829.582.839.387 1.527.93 2.063 1.627.536.698.869 1.512.998 2.442h-2.286c-.175-.678-.562-1.279-1.163-1.802-.594-.53-1.395-.795-2.403-.795-.891 0-1.672.233-2.344.698-.666.458-1.185 1.108-1.56 1.947-.368.834-.552 1.812-.552 2.936 0 1.15.181 2.151.542 3.003.368.853.885 1.515 1.55 1.987.672.471 1.46.707 2.364.707a4.09 4.09 0 0 0 1.618-.31 3.336 3.336 0 0 0 1.231-.892c.336-.387.575-.852.717-1.395h2.286a5.296 5.296 0 0 1-.959 2.374c-.504.698-1.172 1.253-2.005 1.666-.827.407-1.79.611-2.888.611Zm15.667-15.192v1.938h-7.712v-1.938h7.712Zm-5.465-3.565h2.287v14.184c0 .646.094 1.13.281 1.453.194.317.439.53.736.64.304.103.624.155.959.155.252 0 .459-.013.621-.039l.387-.078.465 2.054a4.627 4.627 0 0 1-.649.175c-.278.064-.63.097-1.056.097a4.598 4.598 0 0 1-1.899-.417 3.775 3.775 0 0 1-1.531-1.269c-.4-.569-.601-1.286-.601-2.151v-14.804Zm11.51-1.395v19.842h-2.286v-19.842h2.286Zm5.661 25.422a4.99 4.99 0 0 1-1.037-.097c-.303-.058-.513-.116-.629-.174l.581-2.015c.555.142 1.046.194 1.473.155.426-.039.804-.229 1.133-.572.336-.336.643-.881.921-1.637l.426-1.163-5.503-14.959h2.48l4.108 11.859h.155l4.108-11.859h2.48l-6.317 17.052c-.284.769-.636 1.405-1.056 1.909-.42.51-.907.888-1.463 1.133-.549.246-1.169.368-1.86.368Zm28.015-20.462v1.938h-8.023v-1.938h8.023Zm-5.62 14.882v-16.936c0-.852.2-1.563.601-2.131.4-.569.92-.995 1.56-1.28a4.928 4.928 0 0 1 2.025-.425c.562 0 1.02.045 1.375.135.356.09.621.174.795.252l-.659 1.976a12.521 12.521 0 0 0-.484-.145 2.949 2.949 0 0 0-.795-.087c-.756 0-1.301.19-1.637.572-.33.381-.494.939-.494 1.676v16.393h-2.287Zm8.824 0v-14.882h2.209v2.248h.155c.271-.736.762-1.334 1.473-1.793.71-.458 1.511-.687 2.402-.687.168 0 .378.003.63.009.252.007.443.016.572.029v2.326a6.49 6.49 0 0 0-.533-.088 5.269 5.269 0 0 0-.862-.067c-.724 0-1.37.151-1.938.455a3.428 3.428 0 0 0-1.337 1.24c-.323.523-.484 1.121-.484 1.792v9.418h-2.287Zm15.744.31c-1.344 0-2.522-.32-3.536-.959-1.008-.64-1.796-1.534-2.364-2.684-.562-1.15-.843-2.493-.843-4.031 0-1.55.281-2.903.843-4.059.568-1.156 1.356-2.054 2.364-2.693 1.014-.64 2.192-.96 3.536-.96 1.343 0 2.519.32 3.527.96 1.014.639 1.802 1.537 2.364 2.693.568 1.156.852 2.509.852 4.059 0 1.538-.284 2.881-.852 4.031-.562 1.15-1.35 2.044-2.364 2.684-1.008.639-2.184.959-3.527.959Zm0-2.054c1.021 0 1.86-.262 2.519-.785s1.146-1.211 1.463-2.064a7.909 7.909 0 0 0 .475-2.771c0-.994-.159-1.921-.475-2.78-.317-.859-.804-1.554-1.463-2.083-.659-.53-1.498-.795-2.519-.795-1.021 0-1.86.265-2.519.795-.659.529-1.147 1.224-1.463 2.083a7.969 7.969 0 0 0-.475 2.78c0 .995.158 1.919.475 2.771.316.853.804 1.541 1.463 2.064.659.523 1.498.785 2.519.785Zm10.234 1.744v-14.882h2.209v2.325h.193c.31-.794.811-1.411 1.502-1.85.691-.446 1.521-.669 2.49-.669.982 0 1.799.223 2.451.669.659.439 1.173 1.056 1.541 1.85h.155a4.332 4.332 0 0 1 1.715-1.831c.762-.458 1.676-.688 2.741-.688 1.331 0 2.419.417 3.266 1.25.846.827 1.269 2.116 1.269 3.866v9.96h-2.287v-9.96c0-1.098-.3-1.883-.901-2.354-.601-.472-1.308-.708-2.122-.708-1.046 0-1.857.317-2.431.95-.575.626-.863 1.421-.863 2.383v9.689h-2.325v-10.193c0-.846-.275-1.527-.824-2.044-.549-.523-1.256-.785-2.121-.785a3.14 3.14 0 0 0-1.667.475c-.51.317-.923.756-1.24 1.318-.31.555-.465 1.198-.465 1.928v9.301h-2.286Zm32.51 0h-2.52l7.286-19.842h2.481l7.285 19.842h-2.519l-5.929-16.703h-.155l-5.929 16.703Zm.93-7.751H499v2.131h-10.153v-2.131Zm16.383 13.331v-20.462h2.209v2.364h.271c.168-.258.401-.588.698-.988.303-.407.736-.769 1.298-1.085.569-.323 1.337-.485 2.306-.485 1.253 0 2.358.314 3.313.94.956.627 1.702 1.515 2.239 2.664.536 1.15.804 2.507.804 4.07 0 1.576-.268 2.942-.804 4.098-.537 1.15-1.279 2.041-2.229 2.674-.949.627-2.044.94-3.284.94-.956 0-1.722-.158-2.296-.475-.575-.323-1.018-.688-1.328-1.095-.31-.413-.549-.755-.717-1.027h-.193v7.867h-2.287Zm2.248-13.021c0 1.124.164 2.115.494 2.974.329.853.81 1.521 1.443 2.006.633.478 1.409.717 2.326.717.956 0 1.753-.252 2.393-.756.646-.51 1.13-1.195 1.453-2.054.329-.865.494-1.828.494-2.887 0-1.046-.161-1.989-.484-2.829-.317-.846-.798-1.515-1.444-2.006-.639-.497-1.443-.746-2.412-.746-.93 0-1.712.236-2.345.708-.633.465-1.111 1.117-1.434 1.957-.323.833-.484 1.805-.484 2.916Zm20.423 7.751c-1.343 0-2.522-.32-3.536-.959-1.008-.64-1.796-1.534-2.364-2.684-.562-1.15-.843-2.493-.843-4.031 0-1.55.281-2.903.843-4.059.568-1.156 1.356-2.054 2.364-2.693 1.014-.64 2.193-.96 3.536-.96 1.344 0 2.519.32 3.527.96 1.014.639 1.802 1.537 2.364 2.693.568 1.156.853 2.509.853 4.059 0 1.538-.285 2.881-.853 4.031-.562 1.15-1.35 2.044-2.364 2.684-1.008.639-2.183.959-3.527.959Zm0-2.054c1.021 0 1.86-.262 2.519-.785s1.147-1.211 1.463-2.064a7.886 7.886 0 0 0 .475-2.771c0-.994-.158-1.921-.475-2.78-.316-.859-.804-1.554-1.463-2.083-.659-.53-1.498-.795-2.519-.795-1.02 0-1.86.265-2.519.795-.659.529-1.146 1.224-1.463 2.083a7.992 7.992 0 0 0-.474 2.78c0 .995.158 1.919.474 2.771.317.853.804 1.541 1.463 2.064.659.523 1.499.785 2.519.785Zm12.52-18.098v19.842h-2.286v-19.842h2.286Zm6.475 0v19.842h-2.287v-19.842h2.287Zm10.233 20.152c-1.343 0-2.522-.32-3.536-.959-1.008-.64-1.796-1.534-2.364-2.684-.562-1.15-.843-2.493-.843-4.031 0-1.55.281-2.903.843-4.059.568-1.156 1.356-2.054 2.364-2.693 1.014-.64 2.193-.96 3.536-.96 1.344 0 2.519.32 3.527.96 1.014.639 1.802 1.537 2.364 2.693.568 1.156.853 2.509.853 4.059 0 1.538-.285 2.881-.853 4.031-.562 1.15-1.35 2.044-2.364 2.684-1.008.639-2.183.959-3.527.959Zm0-2.054c1.021 0 1.86-.262 2.519-.785s1.147-1.211 1.463-2.064a7.886 7.886 0 0 0 .475-2.771c0-.994-.158-1.921-.475-2.78-.316-.859-.804-1.554-1.463-2.083-.659-.53-1.498-.795-2.519-.795-1.02 0-1.86.265-2.519.795-.659.529-1.146 1.224-1.463 2.083a7.992 7.992 0 0 0-.474 2.78c0 .995.158 1.919.474 2.771.317.853.804 1.541 1.463 2.064.659.523 1.499.785 2.519.785Zm11.9 1.899c-.478 0-.888-.171-1.23-.514a1.675 1.675 0 0 1-.514-1.23c0-.478.171-.888.514-1.231a1.678 1.678 0 0 1 1.23-.513c.478 0 .888.171 1.231.513.342.343.513.753.513 1.231 0 .316-.081.607-.242.872a1.802 1.802 0 0 1-.63.639 1.661 1.661 0 0 1-.872.233Z"/><rect width="378.552" height="67.071" x="44.335" y="148.92" fill="#121414" rx="16.692"/><g fill="#fff" clip-path="url(#clip2_3414_4795)"><path d="M145.417 174.329a.468.468 0 0 1 .885-.023l.695 1.877a5.526 5.526 0 0 0 3.265 3.265l1.978.732a.468.468 0 0 1 0 .877l-1.978.732a5.528 5.528 0 0 0-3.265 3.265l-.732 1.979a.468.468 0 0 1-.877 0l-.732-1.979a5.531 5.531 0 0 0-3.265-3.265l-1.95-.721a.468.468 0 0 1 .006-.88l2.042-.72a5.529 5.529 0 0 0 3.436-3.564l.492-1.575ZM156.143 170.167a.234.234 0 0 1 .443-.011l.392 1.06a2.979 2.979 0 0 0 1.758 1.758l1.111.411a.234.234 0 0 1 0 .439l-1.111.411a2.976 2.976 0 0 0-1.758 1.758l-.411 1.11a.233.233 0 0 1-.438 0l-.411-1.11a2.975 2.975 0 0 0-1.759-1.758l-1.096-.406a.234.234 0 0 1 .003-.44l1.147-.405a2.977 2.977 0 0 0 1.85-1.918l.28-.899ZM156.143 183.027a.234.234 0 0 1 .443-.012l.392 1.061a2.981 2.981 0 0 0 1.758 1.758l1.111.411a.233.233 0 0 1 0 .438l-1.111.411a2.98 2.98 0 0 0-1.758 1.759l-.411 1.11a.233.233 0 0 1-.438 0l-.411-1.11a2.98 2.98 0 0 0-1.759-1.759l-1.096-.405a.234.234 0 0 1 .003-.44l1.147-.405a2.977 2.977 0 0 0 1.85-1.918l.28-.899Z"/></g><path fill="#fff" d="M168.307 191.455h-3.521l6.411-18.209h4.072l6.419 18.209h-3.521l-4.863-14.475h-.142l-4.855 14.475Zm.116-7.139h9.602v2.649h-9.602v-2.649Zm26.095-2.908-2.934.32a2.37 2.37 0 0 0-.435-.836 2.18 2.18 0 0 0-.818-.631c-.344-.16-.765-.24-1.263-.24-.67 0-1.233.145-1.689.436-.451.29-.673.667-.667 1.129-.006.397.139.72.436.969.302.249.8.454 1.493.614l2.33.497c1.292.279 2.252.721 2.88 1.325.635.605.955 1.396.961 2.374-.006.86-.258 1.618-.756 2.276-.492.652-1.177 1.162-2.054 1.53-.877.367-1.885.551-3.023.551-1.671 0-3.017-.35-4.036-1.049-1.02-.706-1.628-1.687-1.823-2.943l3.138-.303c.143.617.445 1.082.907 1.396.463.314 1.064.472 1.805.472.765 0 1.378-.158 1.841-.472.468-.314.702-.702.702-1.164 0-.392-.151-.715-.453-.97-.297-.254-.759-.45-1.387-.586l-2.33-.489c-1.31-.273-2.279-.732-2.907-1.379-.629-.652-.94-1.475-.934-2.471-.006-.842.222-1.571.685-2.187.468-.623 1.117-1.103 1.947-1.441.836-.344 1.799-.516 2.89-.516 1.6 0 2.86.341 3.778 1.023.925.682 1.497 1.603 1.716 2.765Zm5.882 5.762-.009-3.886h.516l4.907-5.486h3.761l-6.037 6.722h-.667l-2.471 2.65Zm-2.934 4.285v-18.209h3.218v18.209h-3.218Zm8.571 0-4.446-6.215 2.17-2.267 6.126 8.482h-3.85Zm14.374 0h-3.52l6.41-18.209h4.072l6.42 18.209h-3.521l-4.864-14.475h-.142l-4.855 14.475Zm.116-7.139h9.602v2.649h-9.602v-2.649Zm15.522 12.26v-18.778h3.165v2.259h.187c.166-.332.4-.685.702-1.058.302-.38.711-.703 1.227-.97.516-.272 1.174-.409 1.974-.409 1.055 0 2.006.27 2.854.81.853.533 1.529 1.324 2.027 2.374.504 1.043.756 2.323.756 3.84 0 1.5-.246 2.775-.738 3.824s-1.162 1.849-2.01 2.4c-.847.552-1.807.827-2.88.827-.783 0-1.432-.13-1.947-.391-.516-.261-.931-.575-1.245-.943a6.1 6.1 0 0 1-.72-1.058h-.134v7.273h-3.218Zm3.156-11.949c0 .883.124 1.656.373 2.32.255.664.62 1.183 1.094 1.556.48.368 1.061.551 1.743.551.711 0 1.307-.189 1.787-.569.48-.385.842-.909 1.085-1.573.248-.67.373-1.432.373-2.285 0-.848-.122-1.601-.365-2.259-.243-.658-.604-1.173-1.084-1.547-.48-.373-1.079-.56-1.796-.56-.688 0-1.272.181-1.752.543-.48.361-.844.868-1.093 1.52-.243.652-.365 1.42-.365 2.303Zm18.449 7.095c-1.334 0-2.489-.294-3.467-.88-.978-.587-1.737-1.408-2.277-2.463-.533-1.055-.8-2.288-.8-3.699s.267-2.647.8-3.708c.54-1.061 1.299-1.884 2.277-2.471.978-.587 2.133-.881 3.467-.881s2.49.294 3.468.881c.978.587 1.733 1.41 2.267 2.471.539 1.061.809 2.297.809 3.708s-.27 2.644-.809 3.699c-.534 1.055-1.289 1.876-2.267 2.463-.978.586-2.134.88-3.468.88Zm.018-2.579c.723 0 1.328-.198 1.814-.595.486-.403.847-.943 1.084-1.619.243-.675.365-1.428.365-2.258 0-.836-.122-1.591-.365-2.267-.237-.682-.598-1.224-1.084-1.627-.486-.403-1.091-.605-1.814-.605-.741 0-1.357.202-1.849.605-.487.403-.851.945-1.094 1.627-.237.676-.356 1.431-.356 2.267 0 .83.119 1.583.356 2.258.243.676.607 1.216 1.094 1.619.492.397 1.108.595 1.849.595Zm12.476-15.897v18.209h-3.218v-18.209h3.218Zm6.529 0v18.209h-3.219v-18.209h3.219Zm9.266 18.476c-1.333 0-2.489-.294-3.467-.88-.978-.587-1.737-1.408-2.276-2.463-.534-1.055-.8-2.288-.8-3.699s.266-2.647.8-3.708c.539-1.061 1.298-1.884 2.276-2.471.978-.587 2.134-.881 3.467-.881 1.334 0 2.49.294 3.468.881.978.587 1.734 1.41 2.267 2.471.54 1.061.809 2.297.809 3.708s-.269 2.644-.809 3.699c-.533 1.055-1.289 1.876-2.267 2.463-.978.586-2.134.88-3.468.88Zm.018-2.579c.723 0 1.328-.198 1.814-.595.486-.403.848-.943 1.085-1.619.243-.675.364-1.428.364-2.258 0-.836-.121-1.591-.364-2.267-.237-.682-.599-1.224-1.085-1.627s-1.091-.605-1.814-.605c-.741 0-1.357.202-1.849.605-.486.403-.851.945-1.094 1.627-.237.676-.355 1.431-.355 2.267 0 .83.118 1.583.355 2.258.243.676.608 1.216 1.094 1.619.492.397 1.108.595 1.849.595Z"/><path fill="#BEBEBB" d="M295.643 182.455v-12.139h1.399v4.481h.118c.103-.158.245-.36.427-.605.186-.249.451-.47.794-.664.348-.197.818-.296 1.411-.296.767 0 1.442.192 2.027.575.585.383 1.041.927 1.369 1.63.328.703.492 1.533.492 2.49 0 .964-.164 1.799-.492 2.507-.328.703-.782 1.249-1.363 1.636-.581.383-1.251.575-2.009.575-.585 0-1.053-.097-1.405-.291-.352-.197-.622-.421-.812-.669a8.977 8.977 0 0 1-.439-.629h-.166v1.399h-1.351Zm1.375-4.552c0 .687.101 1.294.302 1.82.202.521.496.93.883 1.227.388.292.862.438 1.423.438.585 0 1.073-.154 1.464-.462.395-.312.692-.731.889-1.257a4.917 4.917 0 0 0 .303-1.766c0-.64-.099-1.217-.297-1.731-.193-.518-.488-.927-.883-1.227-.391-.304-.883-.456-1.476-.456-.569 0-1.047.144-1.434.432-.388.285-.68.684-.878 1.198-.197.509-.296 1.104-.296 1.784Zm12.619 4.742c-.877 0-1.634-.194-2.27-.581a3.903 3.903 0 0 1-1.464-1.636c-.34-.703-.51-1.521-.51-2.454 0-.933.17-1.755.51-2.466.344-.715.822-1.272 1.435-1.671.616-.403 1.335-.605 2.157-.605.474 0 .943.079 1.405.237.462.158.883.415 1.263.771.379.351.681.818.906 1.399.226.58.338 1.296.338 2.145v.593h-7.018v-1.209h5.596a2.99 2.99 0 0 0-.308-1.375 2.324 2.324 0 0 0-.866-.955c-.371-.233-.81-.349-1.316-.349-.557 0-1.039.138-1.446.415a2.733 2.733 0 0 0-.931 1.066 3.14 3.14 0 0 0-.326 1.411v.806c0 .688.119 1.271.356 1.749.241.474.575.836 1.002 1.085.426.245.922.367 1.487.367.368 0 .7-.051.996-.154.301-.107.559-.265.777-.474a2.17 2.17 0 0 0 .504-.794l1.351.379a2.995 2.995 0 0 1-.717 1.209 3.486 3.486 0 0 1-1.245.806 4.61 4.61 0 0 1-1.666.285Zm9.858-9.294v1.185h-4.718v-1.185h4.718Zm-3.343-2.182h1.399v8.678c0 .395.057.692.171.889a.89.89 0 0 0 .451.391c.186.064.381.095.587.095.154 0 .28-.008.379-.024l.237-.047.285 1.257a2.862 2.862 0 0 1-.397.106c-.17.04-.386.06-.646.06-.396 0-.783-.085-1.162-.255a2.305 2.305 0 0 1-.937-.777c-.245-.347-.367-.786-.367-1.316v-9.057Zm8.126 11.499c-.577 0-1.1-.108-1.571-.326a2.695 2.695 0 0 1-1.12-.954c-.276-.419-.415-.925-.415-1.517 0-.522.103-.945.308-1.269.206-.328.481-.585.824-.77a4.339 4.339 0 0 1 1.138-.415c.419-.095.84-.17 1.263-.225a55.925 55.925 0 0 1 1.345-.161c.348-.039.601-.104.759-.195.162-.091.243-.249.243-.474v-.048c0-.585-.16-1.039-.48-1.363-.316-.324-.796-.486-1.44-.486-.668 0-1.192.146-1.571.439-.379.292-.646.604-.8.936l-1.328-.474c.237-.553.553-.984.948-1.292.4-.312.834-.53 1.304-.652.475-.127.941-.19 1.399-.19.293 0 .629.036 1.008.107.383.067.753.207 1.108.421.36.213.658.535.895.966.238.43.356 1.007.356 1.731v5.998h-1.399v-1.233h-.071a2.46 2.46 0 0 1-.474.634c-.221.226-.516.417-.883.575-.368.158-.816.237-1.346.237Zm.214-1.256c.553 0 1.019-.109 1.398-.326a2.216 2.216 0 0 0 1.162-1.927v-1.28c-.059.071-.189.136-.391.196a6.855 6.855 0 0 1-.688.148c-.256.039-.507.075-.752.107-.241.027-.437.051-.587.071a5.285 5.285 0 0 0-1.02.231 1.758 1.758 0 0 0-.758.468c-.19.206-.285.486-.285.842 0 .486.18.853.539 1.102.364.245.824.368 1.382.368Z"/><path fill="#FF642D" fill-opacity=".7" d="M701.131 148.873c19.313 0 34.971 15.658 34.971 34.971a34.808 34.808 0 0 1-4.424 17.033c-1.254 2.247-.875 5.052.967 6.851l8.024 7.831c1.218 1.188.376 3.255-1.328 3.255h-38.21c-19.313 0-34.971-15.657-34.971-34.97s15.671-34.971 34.971-34.971Z" opacity=".5"/><rect width="8.781" height="8.781" x="679.871" y="180.438" fill="#BB3506" rx="4.391"/><rect width="8.781" height="8.781" x="695.822" y="180.438" fill="#BB3506" rx="4.391"/><rect width="8.781" height="8.781" x="711.774" y="180.438" fill="#BB3506" rx="4.391"/></g></g><defs><linearGradient id="paint0_linear_3414_4795" x1="720" x2="720" y1="0" y2="316.098" gradientUnits="userSpaceOnUse"><stop offset=".118" stop-color="#F15A24"/><stop offset="1" stop-color="#8B3415"/></linearGradient><linearGradient id="paint1_linear_3414_4795" x1="1146.28" x2="1174.43" y1="135.421" y2="274.701" gradientUnits="userSpaceOnUse"><stop offset=".478" stop-color="#1B1B18"/><stop offset="1" stop-color="#2F2D27"/></linearGradient><linearGradient id="paint2_linear_3414_4795" x1="1249.99" x2="1221.84" y1="135.374" y2="274.654" gradientUnits="userSpaceOnUse"><stop offset=".478" stop-color="#1B1B18"/><stop offset="1" stop-color="#2F2D27"/></linearGradient><linearGradient id="paint3_linear_3414_4795" x1="1195.38" x2="1194.91" y1="34.577" y2="120.302" gradientUnits="userSpaceOnUse"><stop stop-color="#F4C391"/><stop offset=".93" stop-color="#F7A86F"/></linearGradient><linearGradient id="paint4_linear_3414_4795" x1="1196.47" x2="1195.8" y1="105.594" y2="127.685" gradientUnits="userSpaceOnUse"><stop stop-color="#fff" stop-opacity="0"/><stop offset="1" stop-color="#fff" stop-opacity=".2"/></linearGradient><linearGradient id="paint5_linear_3414_4795" x1="1236.66" x2="1236.66" y1="68.879" y2="29.238" gradientUnits="userSpaceOnUse"><stop offset=".15" stop-color="#fff"/><stop offset="1" stop-color="#262626"/></linearGradient><linearGradient id="paint6_linear_3414_4795" x1="1158.94" x2="1158.92" y1="71.812" y2="30.984" gradientUnits="userSpaceOnUse"><stop offset=".17" stop-color="#fff"/><stop offset="1" stop-color="#262626"/></linearGradient><linearGradient id="paint7_linear_3414_4795" x1="1191.45" x2="1191.83" y1="35.464" y2="5.585" gradientUnits="userSpaceOnUse"><stop stop-color="#fff"/><stop offset="1" stop-color="#585858"/></linearGradient><linearGradient id="paint8_linear_3414_4795" x1="1165.86" x2="1165.86" y1="36.865" y2="76.002" gradientUnits="userSpaceOnUse"><stop stop-color="#F19E5A"/><stop offset=".87" stop-color="#F4C391"/></linearGradient><linearGradient id="paint9_linear_3414_4795" x1="1225.71" x2="1225.71" y1="36.865" y2="76.002" gradientUnits="userSpaceOnUse"><stop stop-color="#F19E5A"/><stop offset=".87" stop-color="#F4C391"/></linearGradient><linearGradient id="paint10_linear_3414_4795" x1="1154.4" x2="1188.11" y1="31.611" y2="3.559" gradientUnits="userSpaceOnUse"><stop offset=".05" stop-color="#fff"/><stop offset="1" stop-color="#585858"/></linearGradient><clipPath id="clip0_3414_4795"><path fill="#fff" d="M0 0h1440v240H0z"/></clipPath><clipPath id="clip1_3414_4795"><path fill="#fff" d="M0 0h1450.55v241H0z"/></clipPath><clipPath id="clip2_3414_4795"><path fill="#fff" d="M137.049 165.455h25.037v25.037h-25.037z"/></clipPath></defs></svg>